<?xml version="1.0" encoding="UTF-8" standalone="no"?>
<svg width="22px" height="22px" viewBox="0 0 22 22" version="1.1" xmlns="http://www.w3.org/2000/svg" xmlns:xlink="http://www.w3.org/1999/xlink">
    <!-- Generator: Sketch 45 (43475) - http://www.bohemiancoding.com/sketch -->
    <title>codepen</title>
    <desc>Created with Sketch.</desc>
    <defs></defs>
    <g id="Page-1" stroke="none" stroke-width="1" fill="none" fillRule="evenodd">
        <g id="Desktop" transform="translate(-477.000000, -458.000000)" fill="#FFFFFF">
            <g id="social-icons" transform="translate(386.000000, 458.000000)">
                <g id="codepen" transform="translate(91.000000, 0.000000)">
                    <path d="M21.9835,7.484125 C21.978,7.456625 21.973875,7.429125 21.967,7.404375 L21.95325,7.359 C21.945,7.335625 21.93675,7.31225 21.92575,7.29025 C21.921625,7.27375 21.912,7.258625 21.9065,7.2435 L21.874875,7.181625 L21.847375,7.137625 L21.806125,7.082625 L21.764875,7.041375 L21.709875,7.000125 L21.668625,6.972625 L21.613625,6.931375 L21.572375,6.903875 L21.558625,6.890125 L11.5225,0.165 C11.20625,-0.04675 10.79375,-0.04675 10.4775,0.165 L0.41525,6.86125 L0.4015,6.875 L0.36025,6.906625 L0.30525,6.950625 L0.270875,6.98775 L0.224125,7.038625 L0.191125,7.079875 L0.149875,7.134875 C0.136125,7.148625 0.122375,7.162375 0.122375,7.176125 L0.081125,7.231125 L0.067375,7.286125 C0.053625,7.299875 0.053625,7.327375 0.039875,7.354875 L0.026125,7.396125 C0.012375,7.423625 0.012375,7.451125 0.012375,7.478625 L0.012375,7.519875 C0,7.5625 0,7.60375 0,7.645 L0,14.348125 C0,14.389375 0.00275,14.430625 0.00825,14.471875 L0.017875,14.513125 C0.022,14.540625 0.026125,14.568125 0.03575,14.592875 L0.0495,14.63825 C0.05775,14.663 0.06325,14.686375 0.07425,14.707 L0.094875,14.752375 C0.094875,14.766125 0.108625,14.793625 0.122375,14.807375 L0.149875,14.848625 C0.163625,14.862375 0.177375,14.889875 0.191125,14.903625 L0.218625,14.944875 L0.259875,14.986125 C0.273625,14.999875 0.273625,15.013625 0.287375,15.013625 L0.342375,15.054875 L0.383625,15.082375 L0.397375,15.096125 L10.448625,21.806125 C10.599875,21.916125 10.792375,21.957375 10.971125,21.957375 C11.149875,21.957375 11.328625,21.902375 11.493625,21.792375 L21.56,15.125 L21.57375,15.11125 L21.615,15.081 L21.67,15.03975 L21.71125,15.004 L21.759375,14.953125 L21.792375,14.911875 L21.833625,14.856875 L21.861125,14.812875 L21.888625,14.749625 L21.902375,14.700125 L21.929875,14.631375 L21.943625,14.590125 L21.971125,14.521375 L21.971125,7.646375 C21.971125,7.605125 21.971125,7.563875 21.957375,7.522625 L21.943625,7.481375 L21.9835,7.484125 Z M11,13.23575 L7.656,11 L11,8.76425 L14.344,11 L11,13.23575 Z M10.054,7.1225 L5.9565,9.862875 L2.64825,7.649125 L10.054,2.712875 L10.054,7.1225 L10.054,7.1225 Z M4.255625,11 L1.890625,12.58125 L1.890625,9.41875 L4.255625,11 Z M5.9565,12.1385 L10.054,14.878875 L10.054,19.292625 L2.64825,14.356375 L5.9565,12.142625 L5.9565,12.1385 Z M11.944625,14.878875 L16.042125,12.142625 L19.35175,14.356375 L11.944625,19.292625 L11.944625,14.892625 L11.944625,14.878875 Z M17.744375,11 L20.109375,9.41875 L20.109375,12.58125 L17.744375,11 Z M16.0435,9.862875 L11.946,7.1225 L11.946,2.70875 L19.35175,7.645 L16.0435,9.85875 L16.0435,9.862875 Z" id="Shape"></path>
                </g>
            </g>
        </g>
    </g>
</svg>