<?xml version="1.0" encoding="UTF-8" standalone="no"?>
<svg width="22px" height="22px" viewBox="0 0 22 22" version="1.1" xmlns="http://www.w3.org/2000/svg" xmlns:xlink="http://www.w3.org/1999/xlink">
    <!-- Generator: Sketch 45 (43475) - http://www.bohemiancoding.com/sketch -->
    <title>github</title>
    <desc>Created with Sketch.</desc>
    <defs></defs>
    <g id="Page-1" stroke="none" stroke-width="1" fill="none" fillRule="evenodd">
        <g id="Desktop" transform="translate(-519.000000, -458.000000)" fill="#FFFFFF">
            <g id="social-icons" transform="translate(386.000000, 458.000000)">
                <g id="github" transform="translate(133.000000, 0.000000)">
                    <path d="M11,0.27225 C4.9225,0.27225 0,5.1975 0,11.27225 C0,16.1333333 3.1515,20.2555833 7.52125,21.7085 C8.07125,21.8120833 8.27291667,21.472 8.27291667,21.1795833 C8.27291667,20.9183333 8.26375,20.22625 8.25916667,19.3095833 C5.19933333,19.97325 4.554,17.83375 4.554,17.83375 C4.0535,16.5641667 3.33025,16.225 3.33025,16.225 C2.33383333,15.543 3.40725,15.55675 3.40725,15.55675 C4.51183333,15.63375 5.09208333,16.68975 5.09208333,16.68975 C6.07291667,18.3718333 7.667,17.886 8.29583333,17.6045833 C8.39483333,16.89325 8.67808333,16.4083333 8.9925,16.1333333 C6.54958333,15.8583333 3.982,14.9123333 3.982,10.6975 C3.982,9.49666667 4.40825,8.51583333 5.11408333,7.74583333 C4.99033333,7.46808333 4.61908333,6.34975 5.21033333,4.8345 C5.21033333,4.8345 6.13158333,4.53933333 8.23533333,5.962 C9.11533333,5.71725 10.0503333,5.59625 10.9853333,5.59075 C11.9203333,5.59625 12.8553333,5.71725 13.7353333,5.962 C15.8253333,4.53933333 16.7465833,4.8345 16.7465833,4.8345 C17.3378333,6.34975 16.9665833,7.46808333 16.8565833,7.74583333 C17.5578333,8.51583333 17.9840833,9.49666667 17.9840833,10.6975 C17.9840833,14.9233333 15.4128333,15.85375 12.9653333,16.1241667 C13.3503333,16.4541667 13.7078333,17.1288333 13.7078333,18.1591667 C13.7078333,19.6313333 13.6940833,20.8138333 13.6940833,21.1713333 C13.6940833,21.4600833 13.8865833,21.8038333 14.4503333,21.6938333 C18.85125,20.251 22,16.126 22,11.27225 C22,5.1975 17.07475,0.27225 11,0.27225" id="Shape"></path>
                </g>
            </g>
        </g>
    </g>
</svg>