<?xml version="1.0" encoding="UTF-8" standalone="no"?>
<svg width="26px" height="22px" viewBox="0 0 26 22" version="1.1" xmlns="http://www.w3.org/2000/svg" xmlns:xlink="http://www.w3.org/1999/xlink">
    <!-- Generator: Sketch 45 (43475) - http://www.bohemiancoding.com/sketch -->
    <title>twitter</title>
    <desc>Created with Sketch.</desc>
    <defs></defs>
    <g id="Page-1" stroke="none" stroke-width="1" fill="none" fillRule="evenodd">
        <g id="Desktop" transform="translate(-386.000000, -458.000000)" fill="#FFFFFF">
            <g id="social-icons" transform="translate(386.000000, 458.000000)">
                <g id="twitter">
                    <path d="M25.1428571,3.20257143 C24.2157143,3.61114286 23.2257143,3.88928571 22.1807143,4.015 C23.2445714,3.37542857 24.0632857,2.365 24.4482857,1.16128571 C23.452,1.74271429 22.3472857,2.167 21.1718571,2.40271429 C20.2321429,1.397 18.8932857,0.768428571 17.4067143,0.768428571 C14.5592857,0.768428571 12.2492857,3.07842857 12.2492857,5.92271429 C12.2492857,6.33128571 12.2964286,6.72414286 12.3828571,7.10128571 C8.096,6.897 4.29471429,4.83842857 1.75057143,1.727 C1.30428571,2.48285714 1.05285714,3.36285714 1.05285714,4.32142857 C1.05285714,6.11285714 1.96428571,7.689 3.34714286,8.61457143 C2.50171429,8.58785714 1.705,8.35528571 1.01042857,7.97028571 L1.01042857,8.03314286 C1.01042857,10.5317143 2.78614286,12.6185714 5.148,13.0931429 C4.71428571,13.2094286 4.25857143,13.2722857 3.78871429,13.2722857 C3.45871429,13.2722857 3.14442857,13.2408571 2.83014286,13.1811429 C3.49014286,15.2302857 5.39157143,16.7215714 7.65442857,16.764 C5.89442857,18.1468571 3.663,18.9702857 1.25871429,18.9702857 C0.850142857,18.9702857 0.441571429,18.9467143 0.033,18.8995714 C2.32728571,20.361 5.03014286,21.2158571 7.953,21.2158571 C17.4444286,21.2158571 22.6301429,13.3587143 22.6301429,6.55442857 C22.6301429,6.33442857 22.6301429,6.11442857 22.6144286,5.89442857 C23.6201429,5.17157143 24.5001429,4.26014286 25.1915714,3.223 L25.1428571,3.20257143 Z" id="Shape"></path>
                </g>
            </g>
        </g>
    </g>
</svg>