<?xml version="1.0" encoding="UTF-8" standalone="no"?>
<svg width="16px" height="16px" viewBox="0 0 16 16" version="1.1" xmlns="http://www.w3.org/2000/svg" xmlns:xlink="http://www.w3.org/1999/xlink">
    <!-- Generator: Sketch 46.2 (44496) - http://www.bohemiancoding.com/sketch -->
    <title>link</title>
    <desc>Created with Sketch.</desc>
    <defs></defs>
    <g id="Page-1" stroke="none" stroke-width="1" fill="none" fillRule="evenodd">
        <g id="Desktop-Copy" transform="translate(-106.000000, -1863.000000)" fillRule="nonzero" fill="#555555">
            <g id="Group-6" transform="translate(0.000000, 1471.000000)">
                <g id="Group-4" transform="translate(106.000000, 390.000000)">
                    <g id="link" transform="translate(0.000000, 2.000000)">
                        <path d="M9.71851852,10.5777778 L10.5481481,9.74814815 C10.7851852,9.51111111 10.7851852,9.15555556 10.5481481,8.91851852 L6.63703704,5.00740741 C6.4,4.77037037 6.04444444,4.77037037 5.80740741,5.00740741 L4.97777778,5.83703704 C4.74074074,6.07407407 4.74074074,6.42962963 4.97777778,6.66666667 L8.88888889,10.5777778 C9.12592593,10.8148148 9.48148148,10.8148148 9.71851852,10.5777778 L9.71851852,10.5777778 Z" id="Shape"></path>
                        <path d="M3.2,6.9037037 C2.72592593,6.42962963 2.42962963,5.77777778 2.42962963,5.06666667 C2.42962963,3.64444444 3.61481481,2.45925926 5.03703704,2.45925926 C5.74814815,2.45925926 6.4,2.75555556 6.87407407,3.22962963 L8.35555556,4.71111111 C8.59259259,4.94814815 8.94814815,4.94814815 9.18518519,4.71111111 L10.0148148,3.88148148 C10.2518519,3.64444444 10.2518519,3.28888889 10.0148148,3.05185185 L8.53333333,1.57037037 C7.58518519,0.622222222 6.34074074,0.0888888889 4.97777778,0.0888888889 C2.25185185,0.0888888889 -1.77635684e-15,2.34074074 -1.77635684e-15,5.06666667 C-1.77635684e-15,6.37037037 0.533333333,7.67407407 1.48148148,8.62222222 L2.96296296,10.1037037 C3.2,10.3407407 3.55555556,10.3407407 3.79259259,10.1037037 L4.62222222,9.27407407 C4.85925926,9.03703704 4.85925926,8.68148148 4.62222222,8.44444444 L3.2,6.9037037 Z" id="Shape"></path>
                        <path d="M13.9851852,6.96296296 L12.5037037,5.48148148 C12.2666667,5.24444444 11.9111111,5.24444444 11.6740741,5.48148148 L10.8444444,6.31111111 C10.6074074,6.54814815 10.6074074,6.9037037 10.8444444,7.14074074 L12.3259259,8.62222222 C12.8,9.0962963 13.0962963,9.74814815 13.0962963,10.4592593 C13.0962963,11.8814815 11.9111111,13.0666667 10.4888889,13.0666667 C9.77777778,13.0666667 9.12592593,12.7703704 8.65185185,12.2962963 L7.17037037,10.8148148 C6.93333333,10.5777778 6.57777778,10.5777778 6.34074074,10.8148148 L5.51111111,11.6444444 C5.27407407,11.8814815 5.27407407,12.237037 5.51111111,12.4740741 L6.99259259,13.9555556 C7.94074074,14.9037037 9.18518519,15.437037 10.5481481,15.437037 C13.2740741,15.437037 15.5259259,13.1851852 15.5259259,10.4592593 C15.4666667,9.15555556 14.9333333,7.91111111 13.9851852,6.96296296 Z" id="Shape"></path>
                    </g>
                </g>
            </g>
        </g>
    </g>
</svg>