<?xml version="1.0" encoding="UTF-8" standalone="no"?>
<svg width="388px" height="151px" viewBox="0 0 388 151" version="1.1" xmlns="http://www.w3.org/2000/svg" xmlns:xlink="http://www.w3.org/1999/xlink">
    <!-- Generator: Sketch 43.2 (39069) - http://www.bohemiancoding.com/sketch -->
    <title>logo</title>
    <desc>Created with Sketch.</desc>
    <defs></defs>
    <g id="Page-1" stroke="none" stroke-width="1" fill="none" fill-rule="evenodd">
        <g id="Desktop" transform="translate(-312.000000, -286.000000)">
            <g id="logo" transform="translate(312.000000, 286.000000)">
                <g id="back" transform="translate(45.000000, 0.000000)">
                    <path d="M0.548828125,78.1391602 C1.36474609,76.1523438 10.7163086,71.8256836 14.1152344,72.7270508 C17.5141602,73.628418 18.7909834,74.4845538 17.9621582,78.1391602 C17.133333,81.7937665 14.9572754,81.2392578 11.4399414,84.5234375 C7.92260742,87.8076172 12.5085449,86.0576172 15.9284668,86.0576172 C19.3483887,86.0576172 22.6359863,85.4301758 23.1708984,87.7158203 C23.7058105,90.0014648 24.6013184,92.4765625 21.1064453,92.4765625 C17.6115723,92.4765625 15.4898707,91.9296713 13.7717285,92.0549316 C12.0535864,92.180192 11.915586,92.8964844 8.57080078,93.1628418 C5.22601552,93.4291992 4.26147461,93.6276855 3.29345703,90.7451172 C2.32543945,87.8625488 2.98095703,86.9364065 4.72119141,84.9736328 C6.46142578,83.0108591 10.8847656,81.253418 10.8847656,79.6962891 C10.8847656,78.1391602 7.33740234,80.1259766 7.33740234,80.1259766 C7.33740234,80.1259766 1.55664062,82.5805664 0.935546875,81.2392578 C0.314453125,79.8979492 -0.267089844,80.1259766 0.548828125,78.1391602 Z" id="Path-15" fill="#9646D2"></path>
                    <path d="M290.405762,7.3828125 C290.405762,7.3828125 290.958008,14.3632813 294.867676,14.3632813 C298.777344,14.3632813 301.035156,12.9619141 301.035156,12.9619141 C301.035156,12.9619141 302.837891,11.5488281 301.936523,9.46582031 C301.035156,7.3828125 300.368164,5.70263672 299.260254,5.70263672 C298.152344,5.70263672 295.140625,6.21289063 293.874512,6.21289063 C292.608398,6.21289063 290.734863,5.34423828 291.490234,4.45898438 C292.245605,3.57373047 293.682617,-0.236816406 297.358887,0.322265625 C301.035156,0.881347656 305.725098,2.82373047 305.725098,4.26318359 C305.725098,5.70263672 307.277832,10.6455078 306.501465,12.5043945 C305.725098,14.3632813 305.850098,15.4291992 303,16.9399414 C300.149902,18.4506836 293.979492,19.5253906 292.734863,18.6240234 C291.490234,17.7226562 288.000488,16.4912109 288.000488,14.7265625 C288.000488,12.9619141 287.739746,10.4072266 287.870117,8.89501953 C288.000488,7.3828125 288.48877,5.91845703 289.11377,5.81054688 C289.73877,5.70263672 290.405762,7.3828125 290.405762,7.3828125 Z" id="Path-7" fill="#9646D2"></path>
                    <path d="M328.236816,50.6992188 C328.236816,51.7255859 328.117188,55.237793 331.222656,55.237793 C334.328125,55.237793 335.962402,53.6367188 335.962402,52.7075195 C335.962402,51.7783203 336.956055,49.4111328 335.880859,48.5097656 C334.805664,47.6083984 335.488281,47.0058594 333.355469,47.0058594 C331.222656,47.0058594 330.695801,47.2285156 329.897461,47.8691406 C329.099121,48.5097656 328.236816,49.6728516 328.236816,50.6992188 Z" id="Path-10" fill="#9646D2"></path>
                    <path d="M304.618652,56.0839844 C304.618652,56.0839844 306.44391,57.1210938 305.872559,55.4326172 C305.301208,53.7441406 303.185059,52.1210938 301.507812,52.6313477 C299.830566,53.1416016 297.751465,53.2714844 296.844727,55.090332 C295.937988,56.9091797 294.293457,61.1420898 295.064453,62.8632812 C295.835449,64.5844727 298.011719,68.3188477 300.047363,68.3188477 C302.083008,68.3188477 304.688965,69.0844727 305.280762,68.1015625 C305.872559,67.1186523 307.001953,66.9936523 307.001953,65.9672852 C307.001953,64.940918 307.387695,64.1645508 305.617676,64.1645508 C303.847656,64.1645508 301.779297,64.4960938 301.643555,63.2685547 C301.507812,62.0410156 300.21582,60.6723633 300.861816,59.5 C301.507812,58.3276367 301.263184,56.9550781 302.940918,56.5195312 C304.618652,56.0839844 304.618652,56.0839844 304.618652,56.0839844 Z" id="Path-11" fill="#572ED9"></path>
                    <path d="M225.590332,62.6835938 C226.236328,62.6835938 230.459961,65.2353516 230.459961,65.2353516 L243.276367,75.7661133 C243.276367,75.7661133 247.086914,79.6635742 243.406738,79.6635742 C239.726562,79.6635742 239.606445,80.5913086 239.606445,80.5913086 L247.151855,87.7509766 C247.151855,87.7509766 249.530762,92.3920898 247.151855,92.3920898 C244.772949,92.3920898 252.540527,101.050293 252.540527,101.050293 C252.540527,101.050293 253.300293,103.563965 251.117676,104.074219 C248.935059,104.584473 243.924316,98.8251953 243.924316,98.8251953 C243.924316,98.8251953 234.989258,91.996582 234.989258,90.546875 C234.989258,89.097168 233.571289,86.5136719 237.660645,85.9755859 C241.75,85.4375 231.052246,81.5522461 229.921875,79.1835938 C228.791504,76.8149414 228.166016,74.7026367 229.312988,74.1923828 C230.459961,73.6821289 233.449707,73.4213867 233.449707,73.4213867 C233.449707,73.4213867 225.046875,68.8515625 225.046875,67.4501953 C225.046875,66.0488281 224.944336,62.6835938 225.590332,62.6835938 Z" id="Path-13" fill="#2E1497"></path>
                    <path d="M262.522339,65.9061279 C263.312761,64.2759644 262.835977,64.0327318 263.352539,63.7971191 C263.797441,63.5941923 264.70494,64.3773434 267.096558,63.7971191 C272.265015,62.5432129 271.131384,57.753418 271.131384,57.753418 C271.131384,57.753418 274.474609,58.1519775 275.468262,55.7027588 C276.461914,53.25354 275.034668,52.0356445 277.005859,52.0356445 C278.977051,52.0356445 283.132202,50.3243408 283.132202,48.135498 C283.132202,45.9466553 283.074255,45 279.779333,45 C276.484411,45 270.935425,47.692749 270.556677,49.8149414 C270.432781,50.5091517 270.438399,51.52818 270.075195,51.7653809 C269.32809,52.2533001 267.920155,51.4932278 266.918005,52.2265625 C265.428662,53.3164063 264.790075,54.7661133 265.094275,56.2597656 C265.398474,57.753418 262.67013,57.0100576 261.289099,58.0361328 C259.908068,59.062208 259.71228,59.7995605 259.079626,60.7285156 C258.888184,61.0096192 258.136398,61.9871739 258.146118,62.6405029 C258.164816,63.8971794 258.192857,64.6325387 258.352661,65.3300781 C258.595545,66.3902588 261.051147,68.9403076 262.522339,65.9061279 Z" id="Path-14" fill="#572ED9"></path>
                    <path d="M262.791992,105.70752 C262.791992,105.70752 261.489258,104.556641 260.978516,106.229004 C260.467773,107.901367 262.051758,110.588379 262.421875,110.588379 C262.791992,110.588379 264.657715,111.576172 265.809082,111.576172 C266.960449,111.576172 268.562012,110.03418 268.562012,110.03418 C268.562012,110.03418 270.25,109.007324 270.25,107.618164 C270.25,106.229004 268.702637,103.643066 268.702637,103.643066 C268.702637,103.643066 267.068359,102.872559 267.068359,103.257813 C267.068359,103.643066 267.47998,104.854492 266.644531,106.505371 C265.809082,108.15625 264.17334,108.15625 264.17334,108.15625 L262.791992,105.70752 Z" id="Path-16" fill="#1757A5"></path>
                </g>
                <path d="M45.2193069,80.1328125 L46.9771194,80.1328125 C49.6594245,80.1328125 52.0031511,81.8906074 54.0083694,85.40625 L53.3052444,99.46875 C53.3052444,103.427103 53.8911761,106.604155 55.0630569,109 C55.5578511,108.973958 57.9145984,106.617211 62.1333694,101.929688 C62.9146234,101.695311 67.6020765,97.1250445 76.1958694,88.21875 C79.4250523,83.7656027 82.7192901,81.5390625 86.0786819,81.5390625 L88.5396194,81.1875 C90.8312976,81.7083359 92.1203472,82.4114539 92.4068069,83.296875 C92.9276429,83.296875 93.9823198,84.2343656 95.5708694,86.109375 L95.5708694,86.8125 C95.5708694,89.1823035 92.1594452,97.8671125 85.3364944,112.867188 C83.0187745,118.492216 81.4953523,121.304688 80.7661819,121.304688 L81.1177444,121.65625 L81.1177444,122.007812 L76.5474319,131.148438 C76.1307632,131.174479 74.2557819,135.054649 70.9224319,142.789062 L68.4614944,145.953125 L66.0005569,145.953125 L66.0005569,145.25 L64.5943069,145.953125 C64.5943069,145.432289 63.7740026,144.963544 62.1333694,144.546875 L61.4302444,145.25 C60.7791995,145.171875 60.3104542,144.585943 60.0239944,143.492188 C59.0864898,143.492188 58.6177444,143.257815 58.6177444,142.789062 L58.6177444,140.328125 C58.6177444,135.770811 62.1333343,126.968815 69.1646194,113.921875 C65.4927261,117.307309 61.9771362,121.526016 58.6177444,126.578125 C57.8364905,126.578125 56.7687929,127.281243 55.4146194,128.6875 L55.0630569,128.6875 C52.5630444,126.9427 50.2193179,125.888023 48.0318069,125.523438 C45.6620034,123.908846 43.5526495,119.104207 41.7036819,111.109375 L41.3521194,111.109375 C31.1176933,134.599076 25.4797288,146.799475 24.4380569,147.710938 L23.7349319,147.710938 L21.9771194,146.65625 L20.9224319,147.007812 L20.5708694,146.65625 L20.2193069,147.007812 L19.5161819,145.601562 L18.8130569,146.304688 L18.4614944,145.953125 L15.2974319,146.65625 C14.776596,145.380202 14.073478,144.677084 13.1880569,144.546875 L13.1880569,143.140625 C13.1880569,137.515597 19.8806984,121.552215 33.2661819,95.25 C36.4172394,85.640577 38.9953386,80.8359375 41.0005569,80.8359375 L45.2193069,80.1328125 Z M104.179253,82.671875 L106.32769,82.671875 C110.650628,82.671875 114.00997,84.5859184 116.405815,88.4140625 L116.405815,89.859375 C116.405815,90.5364617 114.127192,94.6119418 109.569878,102.085938 L93.7495651,134.820312 C91.6922632,138.596373 90.2469651,140.75781 89.4136276,141.304688 L89.0620651,140.914062 L88.7105026,140.914062 L87.9683151,142.710938 L87.2651901,142.710938 L87.9683151,140.210938 L84.0230026,146.695312 L83.6714401,146.695312 L83.3198776,146.34375 L83.3198776,145.953125 L83.6714401,145.601562 L83.6714401,144.898438 L83.3198776,144.898438 L81.8745651,148.140625 L81.1323776,148.140625 L81.1323776,147.75 L81.8745651,145.953125 L76.0933151,150.640625 L75.0386276,149.9375 L75.3901901,149.546875 L75.3901901,148.492188 L74.2964401,149.195312 L73.5933151,148.492188 C73.5933151,145.34113 82.2260413,124.833523 99.4917526,86.96875 C100.533424,84.1041523 102.095909,82.671875 104.179253,82.671875 Z M97.5776901,129.46875 L97.5776901,130.054688 L97.2651901,130.054688 L97.2651901,129.46875 L97.5776901,129.46875 Z M124.506386,80.640625 L126.225136,80.640625 C129.844946,80.640625 132.800645,82.5676891 135.092323,86.421875 L135.404823,87.7890625 C135.404823,89.6901137 132.904848,95.3801609 127.904823,104.859375 C122.670422,115.145885 120.053261,124.572874 120.053261,133.140625 L120.053261,134.15625 C125.938707,130.328106 130.717305,125.666694 134.389198,120.171875 C143.035075,109.156195 148.152211,101.200545 149.740761,96.3046875 L151.772011,91.890625 C152.449098,91.890625 152.787636,91.5520867 152.787636,90.875 L153.139198,90.5234375 L153.842323,90.5234375 L153.842323,91.890625 L154.154823,91.890625 C154.779826,88.0364391 155.352737,86.109375 155.873573,86.109375 L156.225136,86.109375 L156.225136,87.4765625 L156.537636,87.4765625 L156.537636,84.7421875 L157.240761,84.7421875 L157.240761,85.7578125 C158.048057,85.3411438 159.063671,83.6354316 160.287636,80.640625 L160.639198,80.640625 C162.904835,82.7500105 164.037636,86.0442484 164.037636,90.5234375 C164.037636,105.523512 154.389295,122.567613 135.092323,141.65625 C131.394388,143.947928 127.188701,145.09375 122.475136,145.09375 C113.751134,145.09375 107.9439,141.903678 105.053261,135.523438 L104.389198,131.421875 L104.389198,129.742188 C104.389198,120.783809 106.212097,112.82816 109.857948,105.875 L118.725136,85.0546875 C120.652229,82.1119645 122.579293,80.640625 124.506386,80.640625 Z M180.849144,80.5625 L181.864769,80.5625 C183.271026,80.5625 185.315276,82.0338395 187.997581,84.9765625 L189.013206,87.7109375 L189.013206,88.375 C189.013206,90.1458422 187.424681,93.2187281 184.247581,97.59375 L184.560081,97.59375 L215.224144,81.9296875 L215.575706,81.9296875 C215.575706,82.372398 215.237168,82.59375 214.560081,82.59375 L214.560081,82.9453125 L215.224144,82.9453125 L217.606956,81.9296875 L217.958519,82.2421875 L217.958519,82.59375 L218.310081,82.2421875 L219.989769,82.2421875 C219.989769,82.7109398 219.651231,82.9453125 218.974144,82.9453125 L219.325706,83.9609375 L221.708519,83.609375 L217.294456,87.7109375 L216.239769,88.0625 L216.239769,88.375 L219.989769,87.7109375 C219.989769,88.1015645 219.09134,88.6744754 217.294456,89.4296875 L217.958519,90.09375 L218.310081,89.7421875 L218.622581,89.7421875 L219.677269,90.09375 L219.677269,90.4453125 L218.974144,91.4609375 C220.119983,91.4609375 220.692894,91.9166621 220.692894,92.828125 L194.130394,108.140625 L194.130394,108.492188 C196.630406,117.971402 198.674657,128.531192 200.263206,140.171875 C200.705917,140.171875 201.044455,141.526028 201.278831,144.234375 L197.177269,145.953125 L196.825706,145.601562 L196.513206,145.601562 L192.763206,147.320312 C187.528805,143.440085 184.911644,139.234398 184.911644,134.703125 L180.497581,116.304688 L180.146019,116.304688 C172.489731,120.471375 168.518416,123.661447 168.231956,125.875 L162.763206,134.390625 C162.190287,134.390625 161.174672,135.979151 159.716331,139.15625 L159.052269,139.15625 L159.052269,138.804688 L159.364769,137.4375 L159.364769,137.085938 L159.052269,137.085938 L158.700706,138.101562 L158.349144,137.789062 L157.997581,137.789062 L156.317894,139.820312 L156.317894,140.171875 L156.630394,140.171875 L157.997581,138.101562 L158.349144,138.101562 L158.349144,138.804688 C157.984559,140.158861 157.07311,140.835938 155.614769,140.835938 C153.218924,145.575545 151.968936,148.869782 151.864769,150.71875 L150.849144,150.71875 C150.849144,149.807287 150.393419,149.351562 149.481956,149.351562 L147.450706,148.6875 L147.099144,148.335938 L146.786644,148.335938 L145.067894,148.6875 C145.067894,147.776037 144.612169,147.320312 143.700706,147.320312 L142.685081,144.9375 C146.096557,134.963492 154.273558,118.609489 167.216331,95.875 C173.362196,86.2395352 177.906421,81.1354195 180.849144,80.5625 Z M159.364769,135.71875 L160.067894,135.71875 L160.731956,134.390625 L160.731956,134.039062 L160.380394,134.039062 C159.989767,134.039062 159.651229,134.598953 159.364769,135.71875 Z M227.270027,82.671875 L229.418465,82.671875 C233.741403,82.671875 237.100744,84.5859184 239.49659,88.4140625 L239.49659,89.859375 C239.49659,90.5364617 237.217967,94.6119418 232.660652,102.085938 L216.84034,134.820312 C214.783038,138.596373 213.33774,140.75781 212.504402,141.304688 L212.15284,140.914062 L211.801277,140.914062 L211.05909,142.710938 L210.355965,142.710938 L211.05909,140.210938 L207.113777,146.695312 L206.762215,146.695312 L206.410652,146.34375 L206.410652,145.953125 L206.762215,145.601562 L206.762215,144.898438 L206.410652,144.898438 L204.96534,148.140625 L204.223152,148.140625 L204.223152,147.75 L204.96534,145.953125 L199.18409,150.640625 L198.129402,149.9375 L198.480965,149.546875 L198.480965,148.492188 L197.387215,149.195312 L196.68409,148.492188 C196.68409,145.34113 205.316816,124.833523 222.582527,86.96875 C223.624199,84.1041523 225.186683,82.671875 227.270027,82.671875 Z M220.668465,129.46875 L220.668465,130.054688 L220.355965,130.054688 L220.355965,129.46875 L220.668465,129.46875 Z M268.861794,80.1328125 L270.619606,80.1328125 C273.301911,80.1328125 275.645638,81.8906074 277.650856,85.40625 L276.947731,99.46875 C276.947731,103.427103 277.533663,106.604155 278.705544,109 C279.200338,108.973958 281.557085,106.617211 285.775856,101.929688 C286.55711,101.695311 291.244563,97.1250445 299.838356,88.21875 C303.067539,83.7656027 306.361777,81.5390625 309.721169,81.5390625 L312.182106,81.1875 C314.473784,81.7083359 315.762834,82.4114539 316.049294,83.296875 C316.570129,83.296875 317.624806,84.2343656 319.213356,86.109375 L319.213356,86.8125 C319.213356,89.1823035 315.801932,97.8671125 308.978981,112.867188 C306.661261,118.492216 305.137839,121.304688 304.408669,121.304688 L304.760231,121.65625 L304.760231,122.007812 L300.189919,131.148438 C299.77325,131.174479 297.898269,135.054649 294.564919,142.789062 L292.103981,145.953125 L289.643044,145.953125 L289.643044,145.25 L288.236794,145.953125 C288.236794,145.432289 287.416489,144.963544 285.775856,144.546875 L285.072731,145.25 C284.421686,145.171875 283.952941,144.585943 283.666481,143.492188 C282.728976,143.492188 282.260231,143.257815 282.260231,142.789062 L282.260231,140.328125 C282.260231,135.770811 285.775821,126.968815 292.807106,113.921875 C289.135213,117.307309 285.619623,121.526016 282.260231,126.578125 C281.478977,126.578125 280.411279,127.281243 279.057106,128.6875 L278.705544,128.6875 C276.205531,126.9427 273.861804,125.888023 271.674294,125.523438 C269.30449,123.908846 267.195136,119.104207 265.346169,111.109375 L264.994606,111.109375 C254.76018,134.599076 249.122215,146.799475 248.080544,147.710938 L247.377419,147.710938 L245.619606,146.65625 L244.564919,147.007812 L244.213356,146.65625 L243.861794,147.007812 L243.158669,145.601562 L242.455544,146.304688 L242.103981,145.953125 L238.939919,146.65625 C238.419083,145.380202 237.715965,144.677084 236.830544,144.546875 L236.830544,143.140625 C236.830544,137.515597 243.523185,121.552215 256.908669,95.25 C260.059726,85.640577 262.637825,80.8359375 264.643044,80.8359375 L268.861794,80.1328125 Z M327.821739,82.671875 L329.970177,82.671875 C334.293115,82.671875 337.652456,84.5859184 340.048302,88.4140625 L340.048302,89.859375 C340.048302,90.5364617 337.769679,94.6119418 333.212364,102.085938 L317.392052,134.820312 C315.33475,138.596373 313.889452,140.75781 313.056114,141.304688 L312.704552,140.914062 L312.352989,140.914062 L311.610802,142.710938 L310.907677,142.710938 L311.610802,140.210938 L307.665489,146.695312 L307.313927,146.695312 L306.962364,146.34375 L306.962364,145.953125 L307.313927,145.601562 L307.313927,144.898438 L306.962364,144.898438 L305.517052,148.140625 L304.774864,148.140625 L304.774864,147.75 L305.517052,145.953125 L299.735802,150.640625 L298.681114,149.9375 L299.032677,149.546875 L299.032677,148.492188 L297.938927,149.195312 L297.235802,148.492188 C297.235802,145.34113 305.868528,124.833523 323.134239,86.96875 C324.175911,84.1041523 325.738395,82.671875 327.821739,82.671875 Z M321.220177,129.46875 L321.220177,130.054688 L320.907677,130.054688 L320.907677,129.46875 L321.220177,129.46875 Z M348.148872,80.640625 L349.867622,80.640625 C353.487432,80.640625 356.443132,82.5676891 358.73481,86.421875 L359.04731,87.7890625 C359.04731,89.6901137 356.547335,95.3801609 351.54731,104.859375 C346.312909,115.145885 343.695747,124.572874 343.695747,133.140625 L343.695747,134.15625 C349.581193,130.328106 354.359792,125.666694 358.031685,120.171875 C366.677561,109.156195 371.794698,101.200545 373.383247,96.3046875 L375.414497,91.890625 C376.091584,91.890625 376.430122,91.5520867 376.430122,90.875 L376.781685,90.5234375 L377.48481,90.5234375 L377.48481,91.890625 L377.79731,91.890625 C378.422313,88.0364391 378.995224,86.109375 379.51606,86.109375 L379.867622,86.109375 L379.867622,87.4765625 L380.180122,87.4765625 L380.180122,84.7421875 L380.883247,84.7421875 L380.883247,85.7578125 C381.690543,85.3411438 382.706158,83.6354316 383.930122,80.640625 L384.281685,80.640625 C386.547321,82.7500105 387.680122,86.0442484 387.680122,90.5234375 C387.680122,105.523512 378.031781,122.567613 358.73481,141.65625 C355.036875,143.947928 350.831188,145.09375 346.117622,145.09375 C337.39362,145.09375 331.586387,141.903678 328.695747,135.523438 L328.031685,131.421875 L328.031685,129.742188 C328.031685,120.783809 329.854583,112.82816 333.500435,105.875 L342.367622,85.0546875 C344.294715,82.1119645 346.221779,80.640625 348.148872,80.640625 Z" id="Miuki-miu" fill="#46F4D4"></path>
                <g id="front" transform="translate(0.000000, 10.000000)">
                    <path d="M95.4057617,7.3828125 C95.4057617,7.3828125 95.9580078,14.3632813 99.8676758,14.3632813 C103.777344,14.3632813 106.035156,12.9619141 106.035156,12.9619141 C106.035156,12.9619141 107.837891,11.5488281 106.936523,9.46582031 C106.035156,7.3828125 105.368164,5.70263672 104.260254,5.70263672 C103.152344,5.70263672 100.140625,6.21289063 98.8745117,6.21289063 C97.6083984,6.21289063 95.7348633,5.34423828 96.4902344,4.45898438 C97.2456055,3.57373047 98.6826172,-0.236816406 102.358887,0.322265625 C106.035156,0.881347656 110.725098,2.82373047 110.725098,4.26318359 C110.725098,5.70263672 112.277832,10.6455078 111.501465,12.5043945 C110.725098,14.3632813 110.850098,15.4291992 108,16.9399414 C105.149902,18.4506836 98.9794922,19.5253906 97.7348633,18.6240234 C96.4902344,17.7226562 93.0004883,16.4912109 93.0004883,14.7265625 C93.0004883,12.9619141 92.7397461,10.4072266 92.8701172,8.89501953 C93.0004883,7.3828125 93.4887695,5.91845703 94.1137695,5.81054688 C94.7387695,5.70263672 95.4057617,7.3828125 95.4057617,7.3828125 Z" id="Path-7" fill="#9646D2"></path>
                    <path d="M103.236816,40.6992188 C103.236816,41.7255859 103.117188,45.237793 106.222656,45.237793 C109.328125,45.237793 110.962402,43.6367188 110.962402,42.7075195 C110.962402,41.7783203 111.956055,39.4111328 110.880859,38.5097656 C109.805664,37.6083984 110.488281,37.0058594 108.355469,37.0058594 C106.222656,37.0058594 105.695801,37.2285156 104.897461,37.8691406 C104.099121,38.5097656 103.236816,39.6728516 103.236816,40.6992188 Z" id="Path-10" fill="#9646D2"></path>
                    <path d="M79.6186523,46.0839844 C79.6186523,46.0839844 81.4439096,47.1210938 80.8725586,45.4326172 C80.3012076,43.7441406 78.1850586,42.1210938 76.5078125,42.6313477 C74.8305664,43.1416016 72.7514648,43.2714844 71.8447266,45.090332 C70.9379883,46.9091797 69.293457,51.1420898 70.0644531,52.8632812 C70.8354492,54.5844727 73.0117187,58.3188477 75.0473633,58.3188477 C77.0830078,58.3188477 79.6889648,59.0844727 80.2807617,58.1015625 C80.8725586,57.1186523 82.0019531,56.9936523 82.0019531,55.9672852 C82.0019531,54.940918 82.3876953,54.1645508 80.6176758,54.1645508 C78.8476562,54.1645508 76.7792969,54.4960938 76.6435547,53.2685547 C76.5078125,52.0410156 75.2158203,50.6723633 75.8618164,49.5 C76.5078125,48.3276367 76.2631836,46.9550781 77.940918,46.5195312 C79.6186523,46.0839844 79.6186523,46.0839844 79.6186523,46.0839844 Z" id="Path-11" fill="#572ED9"></path>
                    <path d="M98.543457,56.0239258 C98.543457,56.0239258 106.925293,77.2998047 106.925293,79.1025391 C106.925293,80.9052734 108.729004,83.5537109 106.458008,84.1459961 C104.187012,84.7382812 101.722656,82.4799805 101.722656,82.4799805 L92.9995117,72.394043 C92.9995117,72.394043 94.5024414,77.7348633 96.2563477,83.0551758 C98.0102539,88.3754883 99.3461914,93.4990234 99.3461914,94.9648438 C99.3461914,96.4306641 99.8989258,100.106445 99.2211914,100.785156 C98.543457,101.463867 98.2485352,101.724609 96.9511719,101.724609 C95.6538086,101.724609 90.3388672,96.4047852 90.3388672,96.4047852 C90.3388672,96.4047852 90.8447266,98.6582031 89.5576172,99.7216797 C88.2705078,100.785156 86.7612305,102.967773 85.9467773,102.967773 C85.1323242,102.967773 83.0043945,100.590332 83.0043945,100.590332 C83.0043945,100.590332 82.5375977,97.0991211 83.5151367,96.7519531 C84.4926758,96.4047852 84.1123047,92.7832031 84.1123047,92.7832031 C84.1123047,92.7832031 82.8095703,90.4277344 83.4609375,89.2382812 C84.1123047,88.0488281 85.7202148,86.4580078 85.7202148,86.4580078 C85.7202148,86.4580078 88.878418,85.7939453 89.9863281,88.6347656 C91.0942383,91.4755859 94.9379883,94.7871094 94.9379883,94.7871094 L87.6206055,70.3178711 C87.6206055,70.3178711 87.1206055,66.1157227 87.3706055,65.5239258 C87.6206055,64.9321289 89.1674805,62.8911133 91.355957,64.9267578 C93.5444336,66.9624023 101.382812,74.9521484 101.382812,74.9521484 C101.382812,74.9521484 99.2495117,65.3168945 98.5219727,64.0737305 C97.7944336,62.8305664 96.0195312,59.7202148 96.0195312,58.3081055 C96.0195312,56.8959961 96.2680664,54.6591797 97.0180664,54.6591797 C97.7680664,54.6591797 98.543457,56.0239258 98.543457,56.0239258 Z" id="Path-12" fill="#1757A5"></path>
                    <path d="M0.590332031,52.6835938 C1.23632812,52.6835938 5.45996094,55.2353516 5.45996094,55.2353516 L18.2763672,65.7661133 C18.2763672,65.7661133 22.0869141,69.6635742 18.4067383,69.6635742 C14.7265625,69.6635742 14.6064453,70.5913086 14.6064453,70.5913086 L22.1518555,77.7509766 C22.1518555,77.7509766 24.5307617,82.3920898 22.1518555,82.3920898 C19.7729492,82.3920898 27.5405273,91.050293 27.5405273,91.050293 C27.5405273,91.050293 28.300293,93.5639648 26.1176758,94.0742188 C23.9350586,94.5844727 18.9243164,88.8251953 18.9243164,88.8251953 C18.9243164,88.8251953 9.98925781,81.996582 9.98925781,80.546875 C9.98925781,79.097168 8.57128906,76.5136719 12.6606445,75.9755859 C16.75,75.4375 6.05224609,71.5522461 4.921875,69.1835938 C3.79150391,66.8149414 3.16601562,64.7026367 4.31298828,64.1923828 C5.45996094,63.6821289 8.44970703,63.4213867 8.44970703,63.4213867 C8.44970703,63.4213867 0.046875,58.8515625 0.046875,57.4501953 C0.046875,56.0488281 -0.0556640625,52.6835938 0.590332031,52.6835938 Z" id="Path-13" fill="#2E1497"></path>
                    <path d="M37.5223389,55.9061279 C38.3127609,54.2759644 37.8359765,54.0327318 38.3525391,53.7971191 C38.7974405,53.5941923 39.7049401,54.3773434 42.0965576,53.7971191 C47.2650146,52.5432129 46.1313841,47.753418 46.1313841,47.753418 C46.1313841,47.753418 49.4746094,48.1519775 50.4682617,45.7027588 C51.4619141,43.25354 50.034668,42.0356445 52.0058594,42.0356445 C53.9770508,42.0356445 58.1322021,40.3243408 58.1322021,38.135498 C58.1322021,35.9466553 58.0742552,35 54.7793333,35 C51.4844114,35 45.9354248,37.692749 45.556677,39.8149414 C45.4327813,40.5091517 45.4383987,41.52818 45.0751953,41.7653809 C44.3280903,42.2533001 42.9201555,41.4932278 41.9180052,42.2265625 C40.4286617,43.3164063 39.7900755,44.7661133 40.0942747,46.2597656 C40.3984739,47.753418 37.6701298,47.0100576 36.2890989,48.0361328 C34.9080681,49.062208 34.7122803,49.7995605 34.0796262,50.7285156 C33.8881839,51.0096192 33.1363976,51.9871739 33.1461182,52.6405029 C33.1648156,53.8971794 33.1928574,54.6325387 33.3526611,55.3300781 C33.5955447,56.3902588 36.0511475,58.9403076 37.5223389,55.9061279 Z" id="Path-14" fill="#572ED9"></path>
                    <path d="M37.7919922,95.7075195 C37.7919922,95.7075195 36.4892578,94.5566406 35.9785156,96.2290039 C35.4677734,97.9013672 37.0517578,100.588379 37.421875,100.588379 C37.7919922,100.588379 39.6577148,101.576172 40.809082,101.576172 C41.9604492,101.576172 43.5620117,100.03418 43.5620117,100.03418 C43.5620117,100.03418 45.25,99.0073242 45.25,97.6181641 C45.25,96.2290039 43.7026367,93.6430664 43.7026367,93.6430664 C43.7026367,93.6430664 42.0683594,92.8725586 42.0683594,93.2578125 C42.0683594,93.6430664 42.4799805,94.8544922 41.6445313,96.5053711 C40.809082,98.15625 39.1733398,98.15625 39.1733398,98.15625 L37.7919922,95.7075195 Z" id="Path-16" fill="#1757A5"></path>
                    <path d="M378.543457,56.0239258 C378.543457,56.0239258 386.925293,77.2998047 386.925293,79.1025391 C386.925293,80.9052734 388.729004,83.5537109 386.458008,84.1459961 C384.187012,84.7382812 381.722656,82.4799805 381.722656,82.4799805 L372.999512,72.394043 C372.999512,72.394043 374.502441,77.7348633 376.256348,83.0551758 C378.010254,88.3754883 379.346191,93.4990234 379.346191,94.9648438 C379.346191,96.4306641 379.898926,100.106445 379.221191,100.785156 C378.543457,101.463867 378.248535,101.724609 376.951172,101.724609 C375.653809,101.724609 370.338867,96.4047852 370.338867,96.4047852 C370.338867,96.4047852 370.844727,98.6582031 369.557617,99.7216797 C368.270508,100.785156 366.76123,102.967773 365.946777,102.967773 C365.132324,102.967773 363.004395,100.590332 363.004395,100.590332 C363.004395,100.590332 362.537598,97.0991211 363.515137,96.7519531 C364.492676,96.4047852 364.112305,92.7832031 364.112305,92.7832031 C364.112305,92.7832031 362.80957,90.4277344 363.460937,89.2382812 C364.112305,88.0488281 365.720215,86.4580078 365.720215,86.4580078 C365.720215,86.4580078 368.878418,85.7939453 369.986328,88.6347656 C371.094238,91.4755859 374.937988,94.7871094 374.937988,94.7871094 L367.620605,70.3178711 C367.620605,70.3178711 367.120605,66.1157227 367.370605,65.5239258 C367.620605,64.9321289 369.16748,62.8911133 371.355957,64.9267578 C373.544434,66.9624023 381.382812,74.9521484 381.382812,74.9521484 C381.382812,74.9521484 379.249512,65.3168945 378.521973,64.0737305 C377.794434,62.8305664 376.019531,59.7202148 376.019531,58.3081055 C376.019531,56.8959961 376.268066,54.6591797 377.018066,54.6591797 C377.768066,54.6591797 378.543457,56.0239258 378.543457,56.0239258 Z" id="Path-12" fill="#1757A5"></path>
                    <path d="M305.548828,82.1391602 C306.364746,80.1523438 315.716309,75.8256836 319.115234,76.7270508 C322.51416,77.628418 323.790983,78.4845538 322.962158,82.1391602 C322.133333,85.7937665 319.957275,85.2392578 316.439941,88.5234375 C312.922607,91.8076172 317.508545,90.0576172 320.928467,90.0576172 C324.348389,90.0576172 327.635986,89.4301758 328.170898,91.7158203 C328.705811,94.0014648 329.601318,96.4765625 326.106445,96.4765625 C322.611572,96.4765625 320.489871,95.9296713 318.771729,96.0549316 C317.053586,96.180192 316.915586,96.8964844 313.570801,97.1628418 C310.226016,97.4291992 309.261475,97.6276855 308.293457,94.7451172 C307.325439,91.8625488 307.980957,90.9364065 309.721191,88.9736328 C311.461426,87.0108591 315.884766,85.253418 315.884766,83.6962891 C315.884766,82.1391602 312.337402,84.1259766 312.337402,84.1259766 C312.337402,84.1259766 306.556641,86.5805664 305.935547,85.2392578 C305.314453,83.8979492 304.73291,84.1259766 305.548828,82.1391602 Z" id="Path-15" fill="#9646D2"></path>
                </g>
            </g>
        </g>
    </g>
</svg>