<?xml version="1.0" encoding="UTF-8"?>
<svg width="100px" height="11px" viewBox="0 0 100 11" version="1.1" xmlns="http://www.w3.org/2000/svg" xmlns:xlink="http://www.w3.org/1999/xlink">
    <!-- Generator: Sketch 47.1 (45422) - http://www.bohemiancoding.com/sketch -->
    <title>page-title-separator</title>
    <desc>Created with Sketch.</desc>
    <defs></defs>
    <g id="Symbols" stroke="none" stroke-width="1" fill="none" fillRule="evenodd">
        <g id="page-title" transform="translate(0.000000, -52.000000)" fill="#46F4D4">
            <g id="page-title-separator">
                <path d="M14.9381273,62.0010975 L16.2768555,60.670339 L12.4461157,61.3357183 L14.9381273,59.8641594 L6.48012112,59.8641594 L7.83421275,59.0853577 L10.2260742,58.0427246 L8.14984647,58.4571341 L4.15742494,59.0853577 L4.15742494,58.4571341 L7.83421275,57.4921875 L0,55.496172 L0.941151893,54.2125913 L5.39526367,53.8076172 L1.95905625,53.3189004 L2.75000904,52.4921875 L98.4817432,52.4921875 C99.4403345,52.8598328 99.9460287,53.8611609 99.998826,55.496172 C100.051623,57.131183 98.3236389,58.8559053 94.8148728,60.670339 C89.6538563,61.5575113 85.977883,62.0010975 83.7869528,62.0010975 C79.8209299,62.0010975 62.8386096,62.1647942 32.8399919,62.4921875 C25.9042908,62.4384096 21.996479,62.4384096 21.1165566,62.4921875"></path>
            </g>
        </g>
    </g>
</svg>