<?xml version="1.0" encoding="UTF-8" standalone="no"?>
<svg width="24px" height="21px" viewBox="0 0 24 21" version="1.1" xmlns="http://www.w3.org/2000/svg" xmlns:xlink="http://www.w3.org/1999/xlink">
    <!-- Generator: Sketch 45 (43475) - http://www.bohemiancoding.com/sketch -->
    <title>medium</title>
    <desc>Created with Sketch.</desc>
    <defs></defs>
    <g id="Page-1" stroke="none" stroke-width="1" fill="none" fill-rule="evenodd">
        <g id="Desktop" transform="translate(-433.000000, -458.000000)" fill="#FFFFFF">
            <g id="social-icons" transform="translate(386.000000, 458.000000)">
                <g id="medium" transform="translate(47.000000, 0.000000)">
                    <path d="M17.3418667,17.0544 L16.9370667,17.7144 L18.1074667,18.2981333 L22.132,20.3104 C22.352,20.4218667 22.5632,20.4717333 22.7450667,20.4717333 C23.1528,20.4717333 23.43,20.2121333 23.43,19.7501333 L23.43,7.16173333 L17.3433333,17.0544 L17.3418667,17.0544 Z M23.3493333,4.3384 C23.3434667,4.334 23.3493333,4.32373333 23.3449333,4.3208 L16.2682667,0.7832 C16.1802667,0.7392 16.0878667,0.727466667 15.994,0.718666667 C15.9705333,0.718666667 15.95,0.704 15.9250667,0.704 C15.6552,0.704 15.3853333,0.838933333 15.2401333,1.07653333 L14.8881333,1.64853333 L14.1548,2.8424 L11.3828,7.35973333 L14.1548,11.8712 L14.8881333,13.0636 L15.6214667,14.2545333 L16.4868,15.6478667 L23.3948,4.44253333 C23.4241333,4.39853333 23.4094667,4.35453333 23.3654667,4.3252 L23.3493333,4.3384 Z M14.1533333,14.6710667 L10.516,8.756 L10.0833333,8.0564 L9.65213333,7.3568 L9.28546667,6.74666667 L9.28546667,13.8849333 L14.1548,16.324 L14.8881333,16.6906667 L15.6214667,17.0573333 L14.8881333,15.8649333 L14.1548,14.6725333 L14.1533333,14.6710667 Z M1.08093333,0.997333333 L0.865333333,0.891733333 C0.740666667,0.830133333 0.621866667,0.8008 0.513333333,0.8008 C0.2112,0.8008 0,1.03546667 0,1.42706667 L0,16.3313333 C0,16.7302667 0.293333333,17.2025333 0.648266667,17.3814667 L6.7276,20.4321333 C6.88453333,20.5201333 7.03266667,20.5494667 7.1676,20.5494667 C7.54453333,20.5494667 7.81,20.2561333 7.81,19.7721333 L7.81,4.41466667 C7.81,4.38533333 7.7924,4.356 7.766,4.34573333 L1.0824,0.997333333 L1.08093333,0.997333333 Z" id="Shape"></path>
                </g>
            </g>
        </g>
    </g>
</svg>