<?xml version="1.0" encoding="UTF-8" standalone="no"?>
<svg width="388px" height="151px" viewBox="0 0 388 151" version="1.1" xmlns="http://www.w3.org/2000/svg" xmlns:xlink="http://www.w3.org/1999/xlink">
    <!-- Generator: Sketch 43.2 (39069) - http://www.bohemiancoding.com/sketch -->
    <title>logo</title>
    <desc>Created with Sketch.</desc>
    <defs></defs>
    <g id="Page-1" stroke="none" stroke-width="1" fill="none" fill-rule="evenodd">
        <g id="Desktop" transform="translate(-318.000000, -286.000000)">
            <g id="logo" transform="translate(318.000000, 286.000000)">
                <g id="back" transform="translate(39.000000, 0.000000)">
                    <path d="M0.548828125,78.1391602 C1.36474609,76.1523438 10.7163086,71.8256836 14.1152344,72.7270508 C17.5141602,73.628418 18.7909834,74.4845538 17.9621582,78.1391602 C17.133333,81.7937665 14.9572754,81.2392578 11.4399414,84.5234375 C7.92260742,87.8076172 12.5085449,86.0576172 15.9284668,86.0576172 C19.3483887,86.0576172 22.6359863,85.4301758 23.1708984,87.7158203 C23.7058105,90.0014648 24.6013184,92.4765625 21.1064453,92.4765625 C17.6115723,92.4765625 15.4898707,91.9296713 13.7717285,92.0549316 C12.0535864,92.180192 11.915586,92.8964844 8.57080078,93.1628418 C5.22601552,93.4291992 4.26147461,93.6276855 3.29345703,90.7451172 C2.32543945,87.8625488 2.98095703,86.9364065 4.72119141,84.9736328 C6.46142578,83.0108591 10.8847656,81.253418 10.8847656,79.6962891 C10.8847656,78.1391602 7.33740234,80.1259766 7.33740234,80.1259766 C7.33740234,80.1259766 1.55664062,82.5805664 0.935546875,81.2392578 C0.314453125,79.8979492 -0.267089844,80.1259766 0.548828125,78.1391602 Z" id="Path-15" fill="#9646D2"></path>
                    <path d="M268.405762,7.3828125 C268.405762,7.3828125 268.958008,14.3632813 272.867676,14.3632813 C276.777344,14.3632813 279.035156,12.9619141 279.035156,12.9619141 C279.035156,12.9619141 280.837891,11.5488281 279.936523,9.46582031 C279.035156,7.3828125 278.368164,5.70263672 277.260254,5.70263672 C276.152344,5.70263672 273.140625,6.21289063 271.874512,6.21289063 C270.608398,6.21289063 268.734863,5.34423828 269.490234,4.45898438 C270.245605,3.57373047 271.682617,-0.236816406 275.358887,0.322265625 C279.035156,0.881347656 283.725098,2.82373047 283.725098,4.26318359 C283.725098,5.70263672 285.277832,10.6455078 284.501465,12.5043945 C283.725098,14.3632813 283.850098,15.4291992 281,16.9399414 C278.149902,18.4506836 271.979492,19.5253906 270.734863,18.6240234 C269.490234,17.7226562 266.000488,16.4912109 266.000488,14.7265625 C266.000488,12.9619141 265.739746,10.4072266 265.870117,8.89501953 C266.000488,7.3828125 266.48877,5.91845703 267.11377,5.81054687 C267.73877,5.70263672 268.405762,7.3828125 268.405762,7.3828125 Z" id="Path-7" fill="#9646D2"></path>
                    <path d="M328.236816,50.6992188 C328.236816,51.7255859 328.117188,55.237793 331.222656,55.237793 C334.328125,55.237793 335.962402,53.6367188 335.962402,52.7075195 C335.962402,51.7783203 336.956055,49.4111328 335.880859,48.5097656 C334.805664,47.6083984 335.488281,47.0058594 333.355469,47.0058594 C331.222656,47.0058594 330.695801,47.2285156 329.897461,47.8691406 C329.099121,48.5097656 328.236816,49.6728516 328.236816,50.6992188 Z" id="Path-10" fill="#9646D2"></path>
                    <path d="M304.618652,56.0839844 C304.618652,56.0839844 306.44391,57.1210938 305.872559,55.4326172 C305.301208,53.7441406 303.185059,52.1210938 301.507812,52.6313477 C299.830566,53.1416016 297.751465,53.2714844 296.844727,55.090332 C295.937988,56.9091797 294.293457,61.1420898 295.064453,62.8632812 C295.835449,64.5844727 298.011719,68.3188477 300.047363,68.3188477 C302.083008,68.3188477 304.688965,69.0844727 305.280762,68.1015625 C305.872559,67.1186523 307.001953,66.9936523 307.001953,65.9672852 C307.001953,64.940918 307.387695,64.1645508 305.617676,64.1645508 C303.847656,64.1645508 301.779297,64.4960938 301.643555,63.2685547 C301.507812,62.0410156 300.21582,60.6723633 300.861816,59.5 C301.507812,58.3276367 301.263184,56.9550781 302.940918,56.5195312 C304.618652,56.0839844 304.618652,56.0839844 304.618652,56.0839844 Z" id="Path-11" fill="#572ED9"></path>
                    <path d="M225.590332,62.6835938 C226.236328,62.6835938 230.459961,65.2353516 230.459961,65.2353516 L243.276367,75.7661133 C243.276367,75.7661133 247.086914,79.6635742 243.406738,79.6635742 C239.726562,79.6635742 239.606445,80.5913086 239.606445,80.5913086 L247.151855,87.7509766 C247.151855,87.7509766 249.530762,92.3920898 247.151855,92.3920898 C244.772949,92.3920898 252.540527,101.050293 252.540527,101.050293 C252.540527,101.050293 253.300293,103.563965 251.117676,104.074219 C248.935059,104.584473 243.924316,98.8251953 243.924316,98.8251953 C243.924316,98.8251953 234.989258,91.996582 234.989258,90.546875 C234.989258,89.097168 233.571289,86.5136719 237.660645,85.9755859 C241.75,85.4375 231.052246,81.5522461 229.921875,79.1835938 C228.791504,76.8149414 228.166016,74.7026367 229.312988,74.1923828 C230.459961,73.6821289 233.449707,73.4213867 233.449707,73.4213867 C233.449707,73.4213867 225.046875,68.8515625 225.046875,67.4501953 C225.046875,66.0488281 224.944336,62.6835938 225.590332,62.6835938 Z" id="Path-13" fill="#2E1497"></path>
                    <path d="M262.522339,65.9061279 C263.312761,64.2759644 262.835977,64.0327318 263.352539,63.7971191 C263.797441,63.5941923 264.70494,64.3773434 267.096558,63.7971191 C272.265015,62.5432129 271.131384,57.753418 271.131384,57.753418 C271.131384,57.753418 274.474609,58.1519775 275.468262,55.7027588 C276.461914,53.25354 275.034668,52.0356445 277.005859,52.0356445 C278.977051,52.0356445 283.132202,50.3243408 283.132202,48.135498 C283.132202,45.9466553 283.074255,45 279.779333,45 C276.484411,45 270.935425,47.692749 270.556677,49.8149414 C270.432781,50.5091517 270.438399,51.52818 270.075195,51.7653809 C269.32809,52.2533001 267.920155,51.4932278 266.918005,52.2265625 C265.428662,53.3164063 264.790075,54.7661133 265.094275,56.2597656 C265.398474,57.753418 262.67013,57.0100576 261.289099,58.0361328 C259.908068,59.062208 259.71228,59.7995605 259.079626,60.7285156 C258.888184,61.0096192 258.136398,61.9871739 258.146118,62.6405029 C258.164816,63.8971794 258.192857,64.6325387 258.352661,65.3300781 C258.595545,66.3902588 261.051147,68.9403076 262.522339,65.9061279 Z" id="Path-14" fill="#572ED9"></path>
                    <path d="M262.791992,105.70752 C262.791992,105.70752 261.489258,104.556641 260.978516,106.229004 C260.467773,107.901367 262.051758,110.588379 262.421875,110.588379 C262.791992,110.588379 264.657715,111.576172 265.809082,111.576172 C266.960449,111.576172 268.562012,110.03418 268.562012,110.03418 C268.562012,110.03418 270.25,109.007324 270.25,107.618164 C270.25,106.229004 268.702637,103.643066 268.702637,103.643066 C268.702637,103.643066 267.068359,102.872559 267.068359,103.257812 C267.068359,103.643066 267.47998,104.854492 266.644531,106.505371 C265.809082,108.15625 264.17334,108.15625 264.17334,108.15625 L262.791992,105.70752 Z" id="Path-16" fill="#1757A5"></path>
                </g>
                <path d="M39.03125,80 L40.7890625,80 C43.4713676,80 45.8150941,81.7577949 47.8203125,85.2734375 L47.1171875,99.3359375 C47.1171875,103.294291 47.7031191,106.471342 48.875,108.867188 C49.3697941,108.841146 51.7265414,106.484398 55.9453125,101.796875 C56.7265664,101.562499 61.4140195,96.992232 70.0078125,88.0859375 C73.2369953,83.6327902 76.5312332,81.40625 79.890625,81.40625 L82.3515625,81.0546875 C84.6432406,81.5755234 85.9322902,82.2786414 86.21875,83.1640625 C86.7395859,83.1640625 87.7942629,84.1015531 89.3828125,85.9765625 L89.3828125,86.6796875 C89.3828125,89.049491 85.9713883,97.7343 79.1484375,112.734375 C76.8307176,118.359403 75.3072953,121.171875 74.578125,121.171875 L74.9296875,121.523438 L74.9296875,121.875 L70.359375,131.015625 C69.9427063,131.041667 68.067725,134.921836 64.734375,142.65625 L62.2734375,145.820312 L59.8125,145.820312 L59.8125,145.117188 L58.40625,145.820312 C58.40625,145.299477 57.5859457,144.830731 55.9453125,144.414062 L55.2421875,145.117188 C54.5911426,145.039062 54.1223973,144.45313 53.8359375,143.359375 C52.8984328,143.359375 52.4296875,143.125002 52.4296875,142.65625 L52.4296875,140.195312 C52.4296875,135.637998 55.9452773,126.836003 62.9765625,113.789062 C59.3046691,117.174496 55.7890793,121.393204 52.4296875,126.445312 C51.6484336,126.445312 50.5807359,127.14843 49.2265625,128.554688 L48.875,128.554688 C46.3749875,126.809887 44.0312609,125.75521 41.84375,125.390625 C39.4739465,123.776034 37.3645926,118.971394 35.515625,110.976562 L35.1640625,110.976562 C24.9296363,134.466263 19.2916719,146.666662 18.25,147.578125 L17.546875,147.578125 L15.7890625,146.523438 L14.734375,146.875 L14.3828125,146.523438 L14.03125,146.875 L13.328125,145.46875 L12.625,146.171875 L12.2734375,145.820312 L9.109375,146.523438 C8.58853906,145.247389 7.88542109,144.544271 7,144.414062 L7,143.007812 C7,137.382784 13.6926414,121.419402 27.078125,95.1171875 C30.2291824,85.5077645 32.8072816,80.703125 34.8125,80.703125 L39.03125,80 Z M97.9911957,82.5390625 L100.139633,82.5390625 C104.462571,82.5390625 107.821913,84.4531059 110.217758,88.28125 L110.217758,89.7265625 C110.217758,90.4036492 107.939135,94.4791293 103.381821,101.953125 L87.5615082,134.6875 C85.5042062,138.463561 84.0589082,140.624997 83.2255707,141.171875 L82.8740082,140.78125 L82.5224457,140.78125 L81.7802582,142.578125 L81.0771332,142.578125 L81.7802582,140.078125 L77.8349457,146.5625 L77.4833832,146.5625 L77.1318207,146.210938 L77.1318207,145.820312 L77.4833832,145.46875 L77.4833832,144.765625 L77.1318207,144.765625 L75.6865082,148.007812 L74.9443207,148.007812 L74.9443207,147.617188 L75.6865082,145.820312 L69.9052582,150.507812 L68.8505707,149.804688 L69.2021332,149.414062 L69.2021332,148.359375 L68.1083832,149.0625 L67.4052582,148.359375 C67.4052582,145.208318 76.0379844,124.70071 93.3036957,86.8359375 C94.3453676,83.9713398 95.9078519,82.5390625 97.9911957,82.5390625 Z M91.3896332,129.335938 L91.3896332,129.921875 L91.0771332,129.921875 L91.0771332,129.335938 L91.3896332,129.335938 Z M118.318329,80.5078125 L120.037079,80.5078125 C123.656889,80.5078125 126.612588,82.4348766 128.904266,86.2890625 L129.216766,87.65625 C129.216766,89.5573012 126.716791,95.2473484 121.716766,104.726562 C116.482365,115.013072 113.865204,124.440061 113.865204,133.007812 L113.865204,134.023438 C119.75065,130.195293 124.529248,125.533882 128.201141,120.039062 C136.847018,109.023382 141.964154,101.067733 143.552704,96.171875 L145.583954,91.7578125 C146.261041,91.7578125 146.599579,91.4192742 146.599579,90.7421875 L146.951141,90.390625 L147.654266,90.390625 L147.654266,91.7578125 L147.966766,91.7578125 C148.591769,87.9036266 149.16468,85.9765625 149.685516,85.9765625 L150.037079,85.9765625 L150.037079,87.34375 L150.349579,87.34375 L150.349579,84.609375 L151.052704,84.609375 L151.052704,85.625 C151.86,85.2083313 152.875614,83.5026191 154.099579,80.5078125 L154.451141,80.5078125 C156.716778,82.617198 157.849579,85.9114359 157.849579,90.390625 C157.849579,105.3907 148.201238,122.4348 128.904266,141.523438 C125.206331,143.815116 121.000644,144.960938 116.287079,144.960938 C107.563077,144.960938 101.755843,141.770865 98.8652039,135.390625 L98.2011414,131.289062 L98.2011414,129.609375 C98.2011414,120.650997 100.02404,112.695347 103.669891,105.742188 L112.537079,84.921875 C114.464172,81.979152 116.391236,80.5078125 118.318329,80.5078125 Z M174.661087,80.4296875 L175.676712,80.4296875 C177.082969,80.4296875 179.127219,81.901027 181.809525,84.84375 L182.82515,87.578125 L182.82515,88.2421875 C182.82515,90.0130297 181.236624,93.0859156 178.059525,97.4609375 L178.372025,97.4609375 L209.036087,81.796875 L209.38765,81.796875 C209.38765,82.2395855 209.049111,82.4609375 208.372025,82.4609375 L208.372025,82.8125 L209.036087,82.8125 L211.4189,81.796875 L211.770462,82.109375 L211.770462,82.4609375 L212.122025,82.109375 L213.801712,82.109375 C213.801712,82.5781273 213.463174,82.8125 212.786087,82.8125 L213.13765,83.828125 L215.520462,83.4765625 L211.1064,87.578125 L210.051712,87.9296875 L210.051712,88.2421875 L213.801712,87.578125 C213.801712,87.968752 212.903284,88.5416629 211.1064,89.296875 L211.770462,89.9609375 L212.122025,89.609375 L212.434525,89.609375 L213.489212,89.9609375 L213.489212,90.3125 L212.786087,91.328125 C213.931926,91.328125 214.504837,91.7838496 214.504837,92.6953125 L187.942337,108.007812 L187.942337,108.359375 C190.44235,117.838589 192.4866,128.398379 194.07515,140.039062 C194.51786,140.039062 194.856398,141.393216 195.090775,144.101562 L190.989212,145.820312 L190.63765,145.46875 L190.32515,145.46875 L186.57515,147.1875 C181.340748,143.307272 178.723587,139.101585 178.723587,134.570312 L174.309525,116.171875 L173.957962,116.171875 C166.301674,120.338562 162.330359,123.528635 162.0439,125.742188 L156.57515,134.257812 C156.00223,134.257812 154.986615,135.846338 153.528275,139.023438 L152.864212,139.023438 L152.864212,138.671875 L153.176712,137.304688 L153.176712,136.953125 L152.864212,136.953125 L152.51265,137.96875 L152.161087,137.65625 L151.809525,137.65625 L150.129837,139.6875 L150.129837,140.039062 L150.442337,140.039062 L151.809525,137.96875 L152.161087,137.96875 L152.161087,138.671875 C151.796502,140.026048 150.885053,140.703125 149.426712,140.703125 C147.030867,145.442732 145.780879,148.73697 145.676712,150.585938 L144.661087,150.585938 C144.661087,149.674475 144.205362,149.21875 143.2939,149.21875 L141.26265,148.554688 L140.911087,148.203125 L140.598587,148.203125 L138.879837,148.554688 C138.879837,147.643225 138.424112,147.1875 137.51265,147.1875 L136.497025,144.804688 C139.9085,134.830679 148.085501,118.476676 161.028275,95.7421875 C167.174139,86.1067227 171.718364,81.002607 174.661087,80.4296875 Z M153.176712,135.585938 L153.879837,135.585938 L154.5439,134.257812 L154.5439,133.90625 L154.192337,133.90625 C153.80171,133.90625 153.463172,134.46614 153.176712,135.585938 Z M221.08197,82.5390625 L223.230408,82.5390625 C227.553346,82.5390625 230.912687,84.4531059 233.308533,88.28125 L233.308533,89.7265625 C233.308533,90.4036492 231.02991,94.4791293 226.472595,101.953125 L210.652283,134.6875 C208.594981,138.463561 207.149683,140.624997 206.316345,141.171875 L205.964783,140.78125 L205.61322,140.78125 L204.871033,142.578125 L204.167908,142.578125 L204.871033,140.078125 L200.92572,146.5625 L200.574158,146.5625 L200.222595,146.210938 L200.222595,145.820312 L200.574158,145.46875 L200.574158,144.765625 L200.222595,144.765625 L198.777283,148.007812 L198.035095,148.007812 L198.035095,147.617188 L198.777283,145.820312 L192.996033,150.507812 L191.941345,149.804688 L192.292908,149.414062 L192.292908,148.359375 L191.199158,149.0625 L190.496033,148.359375 C190.496033,145.208318 199.128759,124.70071 216.39447,86.8359375 C217.436142,83.9713398 218.998626,82.5390625 221.08197,82.5390625 Z M214.480408,129.335938 L214.480408,129.921875 L214.167908,129.921875 L214.167908,129.335938 L214.480408,129.335938 Z M262.673737,80 L264.431549,80 C267.113854,80 269.457581,81.7577949 271.462799,85.2734375 L270.759674,99.3359375 C270.759674,103.294291 271.345606,106.471342 272.517487,108.867188 C273.012281,108.841146 275.369028,106.484398 279.587799,101.796875 C280.369053,101.562499 285.056506,96.992232 293.650299,88.0859375 C296.879482,83.6327902 300.17372,81.40625 303.533112,81.40625 L305.994049,81.0546875 C308.285727,81.5755234 309.574777,82.2786414 309.861237,83.1640625 C310.382073,83.1640625 311.436749,84.1015531 313.025299,85.9765625 L313.025299,86.6796875 C313.025299,89.049491 309.613875,97.7343 302.790924,112.734375 C300.473204,118.359403 298.949782,121.171875 298.220612,121.171875 L298.572174,121.523438 L298.572174,121.875 L294.001862,131.015625 C293.585193,131.041667 291.710212,134.921836 288.376862,142.65625 L285.915924,145.820312 L283.454987,145.820312 L283.454987,145.117188 L282.048737,145.820312 C282.048737,145.299477 281.228432,144.830731 279.587799,144.414062 L278.884674,145.117188 C278.233629,145.039062 277.764884,144.45313 277.478424,143.359375 C276.540919,143.359375 276.072174,143.125002 276.072174,142.65625 L276.072174,140.195312 C276.072174,135.637998 279.587764,126.836003 286.619049,113.789062 C282.947156,117.174496 279.431566,121.393204 276.072174,126.445312 C275.29092,126.445312 274.223223,127.14843 272.869049,128.554688 L272.517487,128.554688 C270.017474,126.809887 267.673748,125.75521 265.486237,125.390625 C263.116433,123.776034 261.007079,118.971394 259.158112,110.976562 L258.806549,110.976562 C248.572123,134.466263 242.934158,146.666662 241.892487,147.578125 L241.189362,147.578125 L239.431549,146.523438 L238.376862,146.875 L238.025299,146.523438 L237.673737,146.875 L236.970612,145.46875 L236.267487,146.171875 L235.915924,145.820312 L232.751862,146.523438 C232.231026,145.247389 231.527908,144.544271 230.642487,144.414062 L230.642487,143.007812 C230.642487,137.382784 237.335128,121.419402 250.720612,95.1171875 C253.871669,85.5077645 256.449768,80.703125 258.454987,80.703125 L262.673737,80 Z M321.633682,82.5390625 L323.78212,82.5390625 C328.105058,82.5390625 331.464399,84.4531059 333.860245,88.28125 L333.860245,89.7265625 C333.860245,90.4036492 331.581622,94.4791293 327.024307,101.953125 L311.203995,134.6875 C309.146693,138.463561 307.701395,140.624997 306.868057,141.171875 L306.516495,140.78125 L306.164932,140.78125 L305.422745,142.578125 L304.71962,142.578125 L305.422745,140.078125 L301.477432,146.5625 L301.12587,146.5625 L300.774307,146.210938 L300.774307,145.820312 L301.12587,145.46875 L301.12587,144.765625 L300.774307,144.765625 L299.328995,148.007812 L298.586807,148.007812 L298.586807,147.617188 L299.328995,145.820312 L293.547745,150.507812 L292.493057,149.804688 L292.84462,149.414062 L292.84462,148.359375 L291.75087,149.0625 L291.047745,148.359375 C291.047745,145.208318 299.680471,124.70071 316.946182,86.8359375 C317.987854,83.9713398 319.550339,82.5390625 321.633682,82.5390625 Z M315.03212,129.335938 L315.03212,129.921875 L314.71962,129.921875 L314.71962,129.335938 L315.03212,129.335938 Z M341.960815,80.5078125 L343.679565,80.5078125 C347.299375,80.5078125 350.255075,82.4348766 352.546753,86.2890625 L352.859253,87.65625 C352.859253,89.5573012 350.359278,95.2473484 345.359253,104.726562 C340.124852,115.013072 337.50769,124.440061 337.50769,133.007812 L337.50769,134.023438 C343.393137,130.195293 348.171735,125.533882 351.843628,120.039062 C360.489504,109.023382 365.606641,101.067733 367.19519,96.171875 L369.22644,91.7578125 C369.903527,91.7578125 370.242065,91.4192742 370.242065,90.7421875 L370.593628,90.390625 L371.296753,90.390625 L371.296753,91.7578125 L371.609253,91.7578125 C372.234256,87.9036266 372.807167,85.9765625 373.328003,85.9765625 L373.679565,85.9765625 L373.679565,87.34375 L373.992065,87.34375 L373.992065,84.609375 L374.69519,84.609375 L374.69519,85.625 C375.502486,85.2083313 376.518101,83.5026191 377.742065,80.5078125 L378.093628,80.5078125 C380.359264,82.617198 381.492065,85.9114359 381.492065,90.390625 C381.492065,105.3907 371.843724,122.4348 352.546753,141.523438 C348.848818,143.815116 344.643131,144.960938 339.929565,144.960938 C331.205563,144.960938 325.39833,141.770865 322.50769,135.390625 L321.843628,131.289062 L321.843628,129.609375 C321.843628,120.650997 323.666526,112.695347 327.312378,105.742188 L336.179565,84.921875 C338.106658,81.979152 340.033722,80.5078125 341.960815,80.5078125 Z" id="Miuki-miu" fill="#46F4D4"></path>
                <g id="front" transform="translate(0.000000, 10.000000)">
                    <path d="M67.4057617,7.3828125 C67.4057617,7.3828125 67.9580078,14.3632813 71.8676758,14.3632813 C75.7773438,14.3632813 78.0351563,12.9619141 78.0351563,12.9619141 C78.0351563,12.9619141 79.8378906,11.5488281 78.9365234,9.46582031 C78.0351563,7.3828125 77.3681641,5.70263672 76.2602539,5.70263672 C75.1523438,5.70263672 72.140625,6.21289063 70.8745117,6.21289063 C69.6083984,6.21289063 67.7348633,5.34423828 68.4902344,4.45898438 C69.2456055,3.57373047 70.6826172,-0.236816406 74.3588867,0.322265625 C78.0351563,0.881347656 82.7250977,2.82373047 82.7250977,4.26318359 C82.7250977,5.70263672 84.277832,10.6455078 83.5014648,12.5043945 C82.7250977,14.3632813 82.8500977,15.4291992 80,16.9399414 C77.1499023,18.4506836 70.9794922,19.5253906 69.7348633,18.6240234 C68.4902344,17.7226562 65.0004883,16.4912109 65.0004883,14.7265625 C65.0004883,12.9619141 64.7397461,10.4072266 64.8701172,8.89501953 C65.0004883,7.3828125 65.4887695,5.91845703 66.1137695,5.81054687 C66.7387695,5.70263672 67.4057617,7.3828125 67.4057617,7.3828125 Z" id="Path-7" fill="#9646D2"></path>
                    <path d="M103.236816,40.6992188 C103.236816,41.7255859 103.117188,45.237793 106.222656,45.237793 C109.328125,45.237793 110.962402,43.6367188 110.962402,42.7075195 C110.962402,41.7783203 111.956055,39.4111328 110.880859,38.5097656 C109.805664,37.6083984 110.488281,37.0058594 108.355469,37.0058594 C106.222656,37.0058594 105.695801,37.2285156 104.897461,37.8691406 C104.099121,38.5097656 103.236816,39.6728516 103.236816,40.6992188 Z" id="Path-10" fill="#9646D2"></path>
                    <path d="M79.6186523,46.0839844 C79.6186523,46.0839844 81.4439096,47.1210938 80.8725586,45.4326172 C80.3012076,43.7441406 78.1850586,42.1210938 76.5078125,42.6313477 C74.8305664,43.1416016 72.7514648,43.2714844 71.8447266,45.090332 C70.9379883,46.9091797 69.293457,51.1420898 70.0644531,52.8632812 C70.8354492,54.5844727 73.0117187,58.3188477 75.0473633,58.3188477 C77.0830078,58.3188477 79.6889648,59.0844727 80.2807617,58.1015625 C80.8725586,57.1186523 82.0019531,56.9936523 82.0019531,55.9672852 C82.0019531,54.940918 82.3876953,54.1645508 80.6176758,54.1645508 C78.8476562,54.1645508 76.7792969,54.4960938 76.6435547,53.2685547 C76.5078125,52.0410156 75.2158203,50.6723633 75.8618164,49.5 C76.5078125,48.3276367 76.2631836,46.9550781 77.940918,46.5195312 C79.6186523,46.0839844 79.6186523,46.0839844 79.6186523,46.0839844 Z" id="Path-11" fill="#572ED9"></path>
                    <path d="M98.543457,56.0239258 C98.543457,56.0239258 106.925293,77.2998047 106.925293,79.1025391 C106.925293,80.9052734 108.729004,83.5537109 106.458008,84.1459961 C104.187012,84.7382812 101.722656,82.4799805 101.722656,82.4799805 L92.9995117,72.394043 C92.9995117,72.394043 94.5024414,77.7348633 96.2563477,83.0551758 C98.0102539,88.3754883 99.3461914,93.4990234 99.3461914,94.9648438 C99.3461914,96.4306641 99.8989258,100.106445 99.2211914,100.785156 C98.543457,101.463867 98.2485352,101.724609 96.9511719,101.724609 C95.6538086,101.724609 90.3388672,96.4047852 90.3388672,96.4047852 C90.3388672,96.4047852 90.8447266,98.6582031 89.5576172,99.7216797 C88.2705078,100.785156 86.7612305,102.967773 85.9467773,102.967773 C85.1323242,102.967773 83.0043945,100.590332 83.0043945,100.590332 C83.0043945,100.590332 82.5375977,97.0991211 83.5151367,96.7519531 C84.4926758,96.4047852 84.1123047,92.7832031 84.1123047,92.7832031 C84.1123047,92.7832031 82.8095703,90.4277344 83.4609375,89.2382812 C84.1123047,88.0488281 85.7202148,86.4580078 85.7202148,86.4580078 C85.7202148,86.4580078 88.878418,85.7939453 89.9863281,88.6347656 C91.0942383,91.4755859 94.9379883,94.7871094 94.9379883,94.7871094 L87.6206055,70.3178711 C87.6206055,70.3178711 87.1206055,66.1157227 87.3706055,65.5239258 C87.6206055,64.9321289 89.1674805,62.8911133 91.355957,64.9267578 C93.5444336,66.9624023 101.382812,74.9521484 101.382812,74.9521484 C101.382812,74.9521484 99.2495117,65.3168945 98.5219727,64.0737305 C97.7944336,62.8305664 96.0195312,59.7202148 96.0195312,58.3081055 C96.0195312,56.8959961 96.2680664,54.6591797 97.0180664,54.6591797 C97.7680664,54.6591797 98.543457,56.0239258 98.543457,56.0239258 Z" id="Path-12" fill="#1757A5"></path>
                    <path d="M0.590332031,52.6835938 C1.23632812,52.6835938 5.45996094,55.2353516 5.45996094,55.2353516 L18.2763672,65.7661133 C18.2763672,65.7661133 22.0869141,69.6635742 18.4067383,69.6635742 C14.7265625,69.6635742 14.6064453,70.5913086 14.6064453,70.5913086 L22.1518555,77.7509766 C22.1518555,77.7509766 24.5307617,82.3920898 22.1518555,82.3920898 C19.7729492,82.3920898 27.5405273,91.050293 27.5405273,91.050293 C27.5405273,91.050293 28.300293,93.5639648 26.1176758,94.0742188 C23.9350586,94.5844727 18.9243164,88.8251953 18.9243164,88.8251953 C18.9243164,88.8251953 9.98925781,81.996582 9.98925781,80.546875 C9.98925781,79.097168 8.57128906,76.5136719 12.6606445,75.9755859 C16.75,75.4375 6.05224609,71.5522461 4.921875,69.1835938 C3.79150391,66.8149414 3.16601562,64.7026367 4.31298828,64.1923828 C5.45996094,63.6821289 8.44970703,63.4213867 8.44970703,63.4213867 C8.44970703,63.4213867 0.046875,58.8515625 0.046875,57.4501953 C0.046875,56.0488281 -0.0556640625,52.6835938 0.590332031,52.6835938 Z" id="Path-13" fill="#2E1497"></path>
                    <path d="M37.5223389,55.9061279 C38.3127609,54.2759644 37.8359765,54.0327318 38.3525391,53.7971191 C38.7974405,53.5941923 39.7049401,54.3773434 42.0965576,53.7971191 C47.2650146,52.5432129 46.1313841,47.753418 46.1313841,47.753418 C46.1313841,47.753418 49.4746094,48.1519775 50.4682617,45.7027588 C51.4619141,43.25354 50.034668,42.0356445 52.0058594,42.0356445 C53.9770508,42.0356445 58.1322021,40.3243408 58.1322021,38.135498 C58.1322021,35.9466553 58.0742552,35 54.7793333,35 C51.4844114,35 45.9354248,37.692749 45.556677,39.8149414 C45.4327813,40.5091517 45.4383987,41.52818 45.0751953,41.7653809 C44.3280903,42.2533001 42.9201555,41.4932278 41.9180052,42.2265625 C40.4286617,43.3164063 39.7900755,44.7661133 40.0942747,46.2597656 C40.3984739,47.753418 37.6701298,47.0100576 36.2890989,48.0361328 C34.9080681,49.062208 34.7122803,49.7995605 34.0796262,50.7285156 C33.8881839,51.0096192 33.1363976,51.9871739 33.1461182,52.6405029 C33.1648156,53.8971794 33.1928574,54.6325387 33.3526611,55.3300781 C33.5955447,56.3902588 36.0511475,58.9403076 37.5223389,55.9061279 Z" id="Path-14" fill="#572ED9"></path>
                    <path d="M37.7919922,95.7075195 C37.7919922,95.7075195 36.4892578,94.5566406 35.9785156,96.2290039 C35.4677734,97.9013672 37.0517578,100.588379 37.421875,100.588379 C37.7919922,100.588379 39.6577148,101.576172 40.809082,101.576172 C41.9604492,101.576172 43.5620117,100.03418 43.5620117,100.03418 C43.5620117,100.03418 45.25,99.0073242 45.25,97.6181641 C45.25,96.2290039 43.7026367,93.6430664 43.7026367,93.6430664 C43.7026367,93.6430664 42.0683594,92.8725586 42.0683594,93.2578125 C42.0683594,93.6430664 42.4799805,94.8544922 41.6445313,96.5053711 C40.809082,98.15625 39.1733398,98.15625 39.1733398,98.15625 L37.7919922,95.7075195 Z" id="Path-16" fill="#1757A5"></path>
                    <path d="M378.543457,56.0239258 C378.543457,56.0239258 386.925293,77.2998047 386.925293,79.1025391 C386.925293,80.9052734 388.729004,83.5537109 386.458008,84.1459961 C384.187012,84.7382812 381.722656,82.4799805 381.722656,82.4799805 L372.999512,72.394043 C372.999512,72.394043 374.502441,77.7348633 376.256348,83.0551758 C378.010254,88.3754883 379.346191,93.4990234 379.346191,94.9648438 C379.346191,96.4306641 379.898926,100.106445 379.221191,100.785156 C378.543457,101.463867 378.248535,101.724609 376.951172,101.724609 C375.653809,101.724609 370.338867,96.4047852 370.338867,96.4047852 C370.338867,96.4047852 370.844727,98.6582031 369.557617,99.7216797 C368.270508,100.785156 366.76123,102.967773 365.946777,102.967773 C365.132324,102.967773 363.004395,100.590332 363.004395,100.590332 C363.004395,100.590332 362.537598,97.0991211 363.515137,96.7519531 C364.492676,96.4047852 364.112305,92.7832031 364.112305,92.7832031 C364.112305,92.7832031 362.80957,90.4277344 363.460937,89.2382812 C364.112305,88.0488281 365.720215,86.4580078 365.720215,86.4580078 C365.720215,86.4580078 368.878418,85.7939453 369.986328,88.6347656 C371.094238,91.4755859 374.937988,94.7871094 374.937988,94.7871094 L367.620605,70.3178711 C367.620605,70.3178711 367.120605,66.1157227 367.370605,65.5239258 C367.620605,64.9321289 369.16748,62.8911133 371.355957,64.9267578 C373.544434,66.9624023 381.382812,74.9521484 381.382812,74.9521484 C381.382812,74.9521484 379.249512,65.3168945 378.521973,64.0737305 C377.794434,62.8305664 376.019531,59.7202148 376.019531,58.3081055 C376.019531,56.8959961 376.268066,54.6591797 377.018066,54.6591797 C377.768066,54.6591797 378.543457,56.0239258 378.543457,56.0239258 Z" id="Path-12" fill="#1757A5"></path>
                    <path d="M305.548828,82.1391602 C306.364746,80.1523438 315.716309,75.8256836 319.115234,76.7270508 C322.51416,77.628418 323.790983,78.4845538 322.962158,82.1391602 C322.133333,85.7937665 319.957275,85.2392578 316.439941,88.5234375 C312.922607,91.8076172 317.508545,90.0576172 320.928467,90.0576172 C324.348389,90.0576172 327.635986,89.4301758 328.170898,91.7158203 C328.705811,94.0014648 329.601318,96.4765625 326.106445,96.4765625 C322.611572,96.4765625 320.489871,95.9296713 318.771729,96.0549316 C317.053586,96.180192 316.915586,96.8964844 313.570801,97.1628418 C310.226016,97.4291992 309.261475,97.6276855 308.293457,94.7451172 C307.325439,91.8625488 307.980957,90.9364065 309.721191,88.9736328 C311.461426,87.0108591 315.884766,85.253418 315.884766,83.6962891 C315.884766,82.1391602 312.337402,84.1259766 312.337402,84.1259766 C312.337402,84.1259766 306.556641,86.5805664 305.935547,85.2392578 C305.314453,83.8979492 304.73291,84.1259766 305.548828,82.1391602 Z" id="Path-15" fill="#9646D2"></path>
                </g>
            </g>
        </g>
    </g>
</svg>