<svg xmlns="http://www.w3.org/2000/svg" width="548" height="93" viewBox="0 0 548 93">
  <g id="Page-1" fill="none" fill-rule="evenodd">
    <g id="Logos-02" fill="#ffffff" transform="translate(-100 -213)">
      <g id="logo-/-dark" transform="translate(100 213)">
        <path id="Soundtracktor" fill-rule="nonzero" d="M147.59886,35.6064808 L140.439902,37.8563654 C139.975896,34.94475 137.52329,30.6435 131.226059,30.6435 C126.45342,30.6435 123.139088,33.8198077 123.139088,37.3931538 C123.139088,40.3709423 124.995114,42.6208269 128.640879,43.4149038 L135.402117,44.8045385 C143.687948,46.4588654 148.129153,51.6865385 148.129153,58.3038462 C148.129153,65.5828846 142.229642,72.5310577 131.491205,72.5310577 C119.559609,72.5310577 114.057818,64.8549808 113.328664,58.1053269 L120.752769,55.9877885 C121.216775,60.8845962 124.729967,65.3843654 131.491205,65.3843654 C137.12557,65.3843654 140.042182,62.5389231 140.042182,58.8994038 C140.042182,55.8554423 137.788436,53.4070385 133.744951,52.5467885 L127.116287,51.1571538 C119.957329,49.7013462 115.184691,45.0030577 115.184691,37.9887115 C115.184691,30.1141154 122.409935,23.6291538 131.159772,23.6291538 C142.229642,23.6291538 146.538274,30.3788077 147.59886,35.6064808 Z M169.473453,65.6490577 C174.246091,65.6490577 178.488436,62.1418846 178.488436,55.3922308 C178.488436,48.70875 174.246091,45.26775 169.473453,45.26775 C164.767101,45.26775 160.458469,48.70875 160.458469,55.3922308 C160.458469,62.0757115 164.767101,65.6490577 169.473453,65.6490577 Z M169.473453,38.3195769 C179.151303,38.3195769 186.243974,45.5324423 186.243974,55.3922308 C186.243974,65.3181923 179.151303,72.5310577 169.473453,72.5310577 C159.861889,72.5310577 152.769218,65.3181923 152.769218,55.3922308 C152.769218,45.5324423 159.861889,38.3195769 169.473453,38.3195769 Z M214.482085,67.9651154 C212.891205,70.8767308 209.112866,72.4648846 205.334528,72.4648846 C197.645277,72.4648846 193.137785,66.774 193.137785,59.6273077 L193.137785,39.3121731 L200.827036,39.3121731 L200.827036,58.2376731 C200.827036,62.2080577 202.683062,65.5828846 207.323127,65.5828846 C211.764332,65.5828846 214.084365,62.6050962 214.084365,58.3700192 L214.084365,39.3121731 L221.773616,39.3121731 L221.773616,65.6490577 C221.773616,68.2959808 221.972476,70.3473462 222.105049,71.5384615 L214.747231,71.5384615 C214.614658,70.8105577 214.482085,69.2885769 214.482085,67.9651154 Z M239.405863,52.9438269 L239.405863,71.5384615 L231.716612,71.5384615 L231.716612,39.3121731 L239.207003,39.3121731 L239.207003,43.6134231 C241.328176,39.9077308 245.172801,38.38575 248.75228,38.38575 C256.640391,38.38575 260.41873,44.0766346 260.41873,51.1571538 L260.41873,71.5384615 L252.729479,71.5384615 L252.729479,52.4806154 C252.729479,48.5102308 250.939739,45.3339231 246.100814,45.3339231 C241.725896,45.3339231 239.405863,48.70875 239.405863,52.9438269 Z M274.935505,55.3260577 C274.935505,61.4801538 278.38241,65.5828846 283.619055,65.5828846 C288.65684,65.5828846 292.170033,61.4139808 292.170033,55.2598846 C292.170033,49.1057885 288.723127,45.26775 283.685342,45.26775 C278.647557,45.26775 274.935505,49.1719615 274.935505,55.3260577 Z M299.594137,23.6291538 L299.594137,65.6490577 C299.594137,68.5606731 299.859283,71.0090769 299.92557,71.5384615 L292.567752,71.5384615 C292.435179,70.8105577 292.236319,68.6930192 292.236319,67.3695577 C290.711726,70.0826538 287.331107,72.3325385 282.757329,72.3325385 C273.477199,72.3325385 267.246254,65.0535 267.246254,55.3260577 C267.246254,46.0618269 273.543485,38.4519231 282.624756,38.4519231 C288.259121,38.4519231 291.109446,41.0326731 292.103746,43.0840385 L292.103746,23.6291538 L299.594137,23.6291538 Z M319.413844,29.4523846 L319.413844,39.3121731 L326.108795,39.3121731 L326.108795,46.128 L319.413844,46.128 L319.413844,61.0831154 C319.413844,63.9285577 320.67329,65.1196731 323.523616,65.1196731 C324.584202,65.1196731 325.843648,64.9211538 326.175081,64.8549808 L326.175081,71.2075962 C325.711075,71.4061154 324.252769,71.9355 321.46873,71.9355 C315.502932,71.9355 311.790879,68.3621538 311.790879,62.3404038 L311.790879,46.128 L305.825081,46.128 L305.825081,39.3121731 L307.482248,39.3121731 C310.929153,39.3121731 312.453746,37.1284615 312.453746,34.2830192 L312.453746,29.4523846 L319.413844,29.4523846 Z M352.29202,39.1136538 L352.29202,46.9220769 C351.430293,46.7897308 350.568567,46.7235577 349.773127,46.7235577 C343.807329,46.7235577 341.089577,50.1645577 341.089577,56.1863077 L341.089577,71.5384615 L333.400326,71.5384615 L333.400326,39.3121731 L340.890717,39.3121731 L340.890717,44.4736731 C342.415309,40.9665 345.994788,38.9151346 350.237134,38.9151346 C351.165147,38.9151346 351.960586,39.0474808 352.29202,39.1136538 Z M356.799511,62.8036154 C356.799511,57.0465577 361.041857,53.87025 366.543648,53.0761731 L374.829479,51.8188846 C376.685505,51.5541923 377.215798,50.6277692 377.215798,49.5028269 C377.215798,46.7897308 375.359772,44.6060192 371.117427,44.6060192 C367.073941,44.6060192 364.820195,47.1867692 364.488762,50.42925 L357.462378,48.8410962 C358.058958,43.2825577 363.096743,38.3195769 371.05114,38.3195769 C380.994137,38.3195769 384.772476,43.9442885 384.772476,50.3630769 L384.772476,66.3769615 C384.772476,69.2885769 385.103909,71.2075962 385.170195,71.5384615 L378.011238,71.5384615 C377.944951,71.3399423 377.679805,70.0164808 377.679805,67.4357308 C376.155212,69.8841346 372.973453,72.5310577 367.736808,72.5310577 C360.97557,72.5310577 356.799511,67.8989423 356.799511,62.8036154 Z M369.195114,66.5093077 C373.503746,66.5093077 377.215798,64.4579423 377.215798,58.1715 L377.215798,56.7156923 L368.797394,57.9729808 C366.411075,58.3700192 364.488762,59.6934808 364.488762,62.3404038 C364.488762,64.5241154 366.145928,66.5093077 369.195114,66.5093077 Z M408.039088,45.4000962 C403.332736,45.4000962 399.156678,48.9072692 399.156678,55.3922308 C399.156678,61.8771923 403.332736,65.5167115 408.171661,65.5167115 C413.209446,65.5167115 415.529479,62.0095385 416.258632,59.5611346 L423.01987,62.0095385 C421.495277,67.0386923 416.656352,72.5310577 408.171661,72.5310577 C398.692671,72.5310577 391.467427,65.1858462 391.467427,55.3922308 C391.467427,45.4662692 398.692671,38.3195769 407.972801,38.3195769 C416.656352,38.3195769 421.42899,43.7457692 422.754723,48.9072692 L415.860912,51.4218462 C415.131759,48.5764038 412.9443,45.4000962 408.039088,45.4000962 Z M460.074104,39.3121731 L446.816775,52.9438269 L460.339251,71.5384615 L450.926547,71.5384615 L441.447557,58.3700192 L437.470358,62.5389231 L437.470358,71.5384615 L429.847394,71.5384615 L429.847394,23.6291538 L437.470358,23.6291538 L437.470358,52.3482692 L449.865961,39.3121731 L460.074104,39.3121731 Z M475.651466,29.4523846 L475.651466,39.3121731 L482.346417,39.3121731 L482.346417,46.128 L475.651466,46.128 L475.651466,61.0831154 C475.651466,63.9285577 476.910912,65.1196731 479.761238,65.1196731 C480.821824,65.1196731 482.08127,64.9211538 482.412704,64.8549808 L482.412704,71.2075962 C481.948697,71.4061154 480.490391,71.9355 477.706352,71.9355 C471.740554,71.9355 468.028502,68.3621538 468.028502,62.3404038 L468.028502,46.128 L462.062704,46.128 L462.062704,39.3121731 L463.71987,39.3121731 C467.166775,39.3121731 468.691368,37.1284615 468.691368,34.2830192 L468.691368,29.4523846 L475.651466,29.4523846 Z M504.088436,65.6490577 C508.861075,65.6490577 513.10342,62.1418846 513.10342,55.3922308 C513.10342,48.70875 508.861075,45.26775 504.088436,45.26775 C499.382085,45.26775 495.073453,48.70875 495.073453,55.3922308 C495.073453,62.0757115 499.382085,65.6490577 504.088436,65.6490577 Z M504.088436,38.3195769 C513.766287,38.3195769 520.858958,45.5324423 520.858958,55.3922308 C520.858958,65.3181923 513.766287,72.5310577 504.088436,72.5310577 C494.476873,72.5310577 487.384202,65.3181923 487.384202,55.3922308 C487.384202,45.5324423 494.476873,38.3195769 504.088436,38.3195769 Z M547.174756,39.1136538 L547.174756,46.9220769 C546.313029,46.7897308 545.451303,46.7235577 544.655863,46.7235577 C538.690065,46.7235577 535.972313,50.1645577 535.972313,56.1863077 L535.972313,71.5384615 L528.283062,71.5384615 L528.283062,39.3121731 L535.773453,39.3121731 L535.773453,44.4736731 C537.298046,40.9665 540.877524,38.9151346 545.11987,38.9151346 C546.047883,38.9151346 546.843322,39.0474808 547.174756,39.1136538 Z"/>
        <g id="icon-/-dark">
          <path id="icon-dark" fill-rule="nonzero" d="M46.5,0 C72.1812409,0 93,20.8187591 93,46.5 C93,72.1812409 72.1812409,93 46.5,93 C20.8187591,93 0,72.1812409 0,46.5 C0,20.8187591 20.8187591,0 46.5,0 Z M46.5,6.975 C24.6709453,6.975 6.975,24.6709453 6.975,46.5 C6.975,68.3290547 24.6709453,86.025 46.5,86.025 C68.3290547,86.025 86.025,68.3290547 86.025,46.5 C86.025,24.6709453 68.3290547,6.975 46.5,6.975 Z M36.2210526,58.2473684 L29.3684211,58.2473684 L29.3684211,34.2631579 L36.2210526,34.2631579 L36.2210526,58.2473684 Z M49.9263158,70.4842105 L43.0736842,70.4842105 L43.0736842,22.5157895 L49.9263158,22.5157895 L49.9263158,70.4842105 Z M63.6315789,58.2473684 L56.7789474,58.2473684 L56.7789474,34.2631579 L63.6315789,34.2631579 L63.6315789,58.2473684 Z"/>
        </g>
      </g>
    </g>
  </g>
</svg>
