<?xml version="1.0" encoding="UTF-8" standalone="no"?>
<svg width="22px" height="22px" viewBox="0 0 22 22" version="1.1" xmlns="http://www.w3.org/2000/svg" xmlns:xlink="http://www.w3.org/1999/xlink">
    <!-- Generator: Sketch 45 (43475) - http://www.bohemiancoding.com/sketch -->
    <title>linkedin</title>
    <desc>Created with Sketch.</desc>
    <defs></defs>
    <g id="Page-1" stroke="none" stroke-width="1" fill="none" fillRule="evenodd">
        <g id="Desktop" transform="translate(-561.000000, -459.000000)" fill="#FFFFFF">
            <g id="social-icons" transform="translate(386.000000, 458.000000)">
                <g id="linkedin" transform="translate(175.000000, 1.000000)">
                    <path d="M18.744,18.748125 L15.48525,18.748125 L15.48525,13.64275 C15.48525,12.4245 15.4605,10.858375 13.7885,10.858375 C12.090375,10.858375 11.8305,12.183875 11.8305,13.553375 L11.8305,18.748125 L8.57175,18.748125 L8.57175,8.25 L11.70125,8.25 L11.70125,9.68 L11.7425,9.68 C12.17975,8.855 13.244,7.984625 14.832125,7.984625 C18.132125,7.984625 18.744,10.157125 18.744,12.9855 L18.744,18.744 L18.744,18.748125 Z M4.89225,6.813125 C3.8445,6.813125 3.00025,5.96475 3.00025,4.91975 C3.00025,3.8775 3.8445,3.029125 4.89225,3.029125 C5.93725,3.029125 6.78425,3.8775 6.78425,4.91975 C6.78425,5.96475 5.935875,6.813125 4.89225,6.813125 Z M6.52575,18.748125 L3.25875,18.748125 L3.25875,8.25 L6.52575,8.25 L6.52575,18.748125 L6.52575,18.748125 Z M20.372,0 L1.6225,0 C0.726,0 0,0.7095 0,1.585375 L0,20.414625 C0,21.2905 0.726,22 1.6225,22 L20.370625,22 C21.267125,22 22,21.2905 22,20.414625 L22,1.585375 C22,0.7095 21.267125,0 20.370625,0 L20.372,0 Z" id="Shape"></path>
                </g>
            </g>
        </g>
    </g>
</svg>