<?xml version="1.0" encoding="UTF-8" standalone="no"?>
<svg width="22px" height="22px" viewBox="0 0 22 22" version="1.1" xmlns="http://www.w3.org/2000/svg" xmlns:xlink="http://www.w3.org/1999/xlink">
    <!-- Generator: Sketch 45 (43475) - http://www.bohemiancoding.com/sketch -->
    <title>dribbble</title>
    <desc>Created with Sketch.</desc>
    <defs></defs>
    <g id="Page-1" stroke="none" stroke-width="1" fill="none" fill-rule="evenodd">
        <g id="Desktop" transform="translate(-603.000000, -458.000000)" fill="#FFFFFF">
            <g id="social-icons" transform="translate(386.000000, 458.000000)">
                <g id="dribbble" transform="translate(217.000000, 0.000000)">
                    <path d="M11,22 C4.93625,22 0,17.06375 0,11 C0,4.93625 4.93625,0 11,0 C17.06375,0 22,4.93625 22,11 C22,17.06375 17.06375,22 11,22 Z M20.277125,12.505625 C19.955375,12.403875 17.369,11.6325 14.42375,12.104125 C15.653,15.481125 16.1535,18.231125 16.24975,18.803125 C18.357625,17.37725 19.85775,15.118125 20.2785,12.505625 L20.277125,12.505625 Z M14.67125,19.6625 C14.531,18.8375 13.98375,15.9665 12.66375,12.54 L12.60325,12.55925 C7.304,14.405875 5.40375,18.08125 5.23325,18.425 C6.8255,19.669375 8.8275,20.4105 11,20.4105 C12.302125,20.4105 13.54375,20.14375 14.67125,19.663875 L14.67125,19.6625 Z M4.019125,17.2975 C4.23225,16.93175 6.810375,12.66375 11.65725,11.09625 C11.781,11.055 11.90475,11.01925 12.0285,10.98625 C11.790625,10.45 11.5335,9.9165 11.265375,9.39125 C6.5725,10.79375 2.02125,10.734625 1.60875,10.725 L1.604625,11.011 C1.604625,13.424125 2.519,15.62825 4.019125,17.29475 L4.019125,17.2975 Z M1.80125,9.08875 C2.223375,9.095625 6.094,9.112125 10.4885,7.94475 C8.932,5.17825 7.253125,2.850375 7.005625,2.51075 C4.376625,3.751 2.413125,6.17375 1.802625,9.090125 L1.80125,9.08875 Z M8.8,1.881 C9.0585,2.228875 10.76625,4.552625 12.3035,7.381 C15.64475,6.12975 17.061,4.228125 17.22875,3.9875 C15.569125,2.512125 13.387,1.617 11,1.617 C10.24375,1.617 9.505375,1.70775 8.8,1.87825 L8.8,1.881 Z M18.27375,5.07375 C18.074375,5.3405 16.5,7.359 13.02675,8.778 C13.24675,9.224875 13.453,9.68 13.649625,10.13925 C13.718375,10.300125 13.787125,10.462375 13.85175,10.62325 C16.9785,10.23 20.084625,10.85975 20.394,10.92575 C20.373375,8.707875 19.58275,6.6715 18.272375,5.072375 L18.27375,5.07375 Z" id="Shape"></path>
                </g>
            </g>
        </g>
    </g>
</svg>