<?xml version="1.0" encoding="UTF-8"?>
<svg width="24px" height="20px" viewBox="0 0 24 20" version="1.1" xmlns="http://www.w3.org/2000/svg" xmlns:xlink="http://www.w3.org/1999/xlink">
    <!-- Generator: Sketch 46.2 (44496) - http://www.bohemiancoding.com/sketch -->
    <title>medium</title>
    <desc>Created with Sketch.</desc>
    <defs></defs>
    <g id="Page-1" stroke="none" stroke-width="1" fill="none" fill-rule="evenodd">
        <g id="Desktop-Copy" transform="translate(-433.000000, -459.000000)" fill-rule="nonzero" fill="#FFFFFF">
            <g id="social-icons" transform="translate(386.000000, 458.000000)">
                <g id="medium" transform="translate(47.000000, 1.000000)">
                    <path d="M7.45,0.67 L12.83,12.41 L13,12.41 C13.86,10.48 14.6,8.5 15.4,6.54 C16.2,4.58 17,2.64 17.75,0.68 L23.41,0.68 C23.336818,0.80119829 23.2566841,0.918060285 23.17,1.03 C22.75,1.5 22.34,2.03 21.89,2.44 C21.5615087,2.76252027 21.3867922,3.21023132 21.41,3.67 L21.41,16.67 C21.3986921,16.9996544 21.5386509,17.3164033 21.79,17.53 C22.23,17.92 22.65,18.33 23.07,18.74 L23.48,19.16 L14.71,19.16 C14.7883108,19.0436663 14.8752203,18.9333581 14.97,18.83 C15.38,18.44 15.79,18.04 16.22,17.67 C16.5160625,17.4246331 16.6791203,17.0540473 16.66,16.67 L16.66,7.33 C16.66,6.89 16.66,6.45 16.73,6.02 L16.73,5.3 L16.6,5.3 C16.52,5.46 16.42,5.61 16.36,5.78 L11.06,18.78 C10.99,18.96 10.9,19.13 10.81,19.3 L10.69,19.3 L4.23,5.16 L4.09,5.16 L4.09,14.42 C4.07934878,14.8777076 4.23175606,15.3242963 4.52,15.68 C5.29,16.68 6.04,17.68 6.8,18.68 C6.9,18.81 6.98,18.95 7.12,19.14 L0.5,19.14 C0.6,18.97 0.67,18.85 0.75,18.75 C1.54,17.7 2.34,16.64 3.14,15.6 C3.40654228,15.2690465 3.54814344,14.8548631 3.54,14.43 L3.54,4.43 C3.55355924,4.06786734 3.43643177,3.71293563 3.21,3.43 C2.57,2.67 2,1.85 1.34,1 C1.27,0.9 1.21,0.79 1.11,0.64 L7.45,0.67 Z" id="Shape"></path>
                </g>
            </g>
        </g>
    </g>
</svg>